<svg xmlns="http://www.w3.org/2000/svg" version="1.1" xmlns:xlink="http://www.w3.org/1999/xlink" xmlns:svgjs="http://svgjs.dev/svgjs" width="1000" height="1000" viewBox="0 0 1000 1000"><rect width="1000" height="1000" fill="#ffffff"></rect><g transform="matrix(0.7,0,0,0.7,150,106.25)"><svg viewBox="0 0 320 360" data-background-color="#ffffff" preserveAspectRatio="xMidYMid meet" height="1125" width="1000" xmlns="http://www.w3.org/2000/svg" xmlns:xlink="http://www.w3.org/1999/xlink"><g id="tight-bounds" transform="matrix(1,0,0,1,0,0)"><svg viewBox="0 0 320 360" height="360" width="320"><g><svg></svg></g><g><svg viewBox="0 0 320 360" height="360" width="320"><g><path d="M165.217 303.356c-1.404-1.755-2.809-0.702-2.808-1.755-8.426 2.106-24.223-3.511-30.894-2.809 1.404-2.106-2.106-1.755-2.106-3.159-1.404 2.106-2.809 0-4.915 0.702-2.106-5.266-10.532-1.404-11.585-8.075-4.915 0-6.67-2.809-11.586-5.617 0.351-0.351 0.702-0.351 1.054-0.702-2.457-0.351-2.457-1.755-4.564-1.755l0.702-1.405c-3.862-0.702-5.266-6.67-10.883-8.776-1.755-0.351-5.617-6.319-7.723-7.724-1.053-0.702-2.809-0.702-0.352-1.053-0.351-0.351-0.351-1.053 0-1.404-2.457-0.702-2.809-2.809-5.968-3.862-0.351-1.053 0.702-1.755 0-2.457-0.702-0.351-1.755 0.351-2.457 0-0.351 6.319 6.67 7.021 8.777 12.287-0.702-0.702-1.755-2.809-2.458-1.404-0.351 1.053 2.809 4.915 2.809 2.808-1.053 0.702-1.404-1.053-0.703-1.404 1.053 1.755 3.16 1.404 3.16 2.809-1.053 1.053-2.457-1.053-2.106 0.702 3.16 1.755 2.809 3.511 4.563 5.968-1.404-1.755-1.755 1.404-3.159 0-0.351-5.266-6.319-4.213-6.319-9.479-0.702-1.755-1.404-0.351-2.458-1.053 1.404-1.404-4.213-6.319-4.213-4.564-1.755-2.106-0.702-2.809-1.053-4.213-1.404-0.351-0.351 1.404-1.404 0.351 1.404-2.457-1.755-5.617-3.862-8.074l1.405-0.702c-2.457-1.404-2.809-4.213-4.564-7.373-2.106 3.16 4.213 10.181 3.159 11.585 0 0.351 2.457 3.16 3.16 4.564 2.809 4.915 4.915 10.883 8.777 13.692-0.702-0.351-0.351-2.457 0.702-1.404 0 1.053-0.702 2.106-0.702 3.159 2.106 2.106 3.862 3.862 5.968 5.968-4.564-2.809-9.128-5.617-12.288-9.83 1.755-0.351 3.511 2.809 4.915 2.458-3.511-2.809-2.457-3.862-3.861-7.372-1.404-1.053 0.351 1.404-1.054 1.755-4.564-4.213-8.075-6.67-10.181-10.532 0.351-0.351 0.702-0.702 0.703-1.404-0.351-0.351-0.351-0.351-0.703-0.702 2.106 2.106 2.809 3.862 5.266 4.212-1.053-1.053 0-1.404-1.404-2.457-0.702-1.404-1.755 0.702-2.457-0.351 0.702-1.053 0-2.457 0-3.511-0.702 0-1.404 0-1.756-1.053-0.702-0.351-1.053 0-1.404 0.702-0.351-0.351-0.351-1.053-0.702-1.404v-0.351c-0.351-0.351-0.702-1.053-1.053-1.405-2.809-7.372-4.564-17.202-8.426-23.521 1.053-4.213-0.702-12.638-1.755-14.745 1.053-1.755 0.351-9.83-0.351-11.234-1.755 0.702 0.351 4.564-1.404 5.617-1.755-7.723 1.053-16.5 0.351-23.521 0.702 0 1.404 0 1.404-0.351-1.053-1.053 0.702-3.16 0.351-5.617 1.404-3.16-3.16 4.564-3.16 7.723-0.351 0.702-1.755 0-1.404 1.756 0 2.457 0.702 7.372-0.702 10.883-0.702 0-0.702-0.702-1.404-0.351-0.351 1.755-0.702 3.862-1.053 5.617-0.351-0.702-0.702-1.755-0.703-2.107-1.755-8.777 0-18.958-0.702-26.33 1.404 0 1.404-2.106 2.458-2.808-0.351 2.809-1.053 6.319 0.702 7.021 1.404-13.692 4.213-28.787 10.532-43.532 4.564-10.883 11.234-21.766 19.308-30.543 0.702 1.053-0.351 3.511 0 4.564 7.021-7.372 11.585-16.149 19.309-21.064 0.351 1.755-3.16 3.16-3.16 4.564 3.16-3.16 4.213-2.106 7.724-3.159 1.053-1.404-1.404 0-1.756-1.405 2.106-1.404 3.511-3.16 4.915-4.212 0 0.351-0.351 0.351-0.351 0.702 3.862-1.053 4.213-3.16 7.022-3.862-0.351-0.351-1.053-0.702-2.107-0.351 0.702-0.351 1.755-1.053 2.809-1.404-0.351 0-0.351 0.351-0.702 0.351 2.106-1.053 0.351 0.351 0.351 1.053 0.351 0 0.702-0.351 0.702-0.351-2.106 1.404-3.511 2.106-4.213 4.564 1.053-0.702 1.404 0 2.809-1.054 1.404-0.702-0.351-1.755 0.702-2.457 1.053 0.702 2.457 0.351 3.51 0.351 0-0.702 0.351-1.404 1.054-1.755 0.351-0.702 0-1.053-0.352-1.053 0.351-0.351 0.702-0.351 1.405-0.703 0 0 0.351 0 0.351 0.351 5.968-2.809 12.638-5.266 18.957-7.372 3.862-0.351 8.777-0.351 10.883-2.808-0.702 0-1.404 0.351-1.755 0 0.351 0 1.053-0.351 1.404-0.351 0.702 0.702 1.755 0 0.702 1.404 0.351 0 0.351 0 0.703-0.351 0 0.351 0 0.351 0.351 0.702 0.351 0 0.702-0.351 1.053-1.053 0.351 0 0.702 0 1.053-0.351l-0.351 0.351c2.809-0.702 5.266-0.351 9.128-1.054 0-0.351 0-0.702 0-1.053 0.702 0 1.053-0.351 1.755-0.351v0.351c1.404-0.702 2.809 0.702 2.808 0 0.351 0 0.351 0 0.703 0 0 0.702-0.351 1.053-0.351 1.405 1.755 0 2.809 0 3.51-1.054-0.351-0.351-0.702-0.351-1.053-0.351 0.702 0 1.404-0.351 2.106-0.702 1.053 0.351 1.404 0.702 1.405 2.107 1.755-3.16 7.372 0.702 9.829 0 1.053 0 0.702-1.404 1.405-2.107 0.351 0 0.702 0 1.053 0 1.755 1.404 4.213 2.809 7.372 3.16-2.809-0.702 0.351-1.053 0.702-1.405-0.702 0-0.702-0.351-0.702-0.702 1.053 0 2.106 0.351 3.16 0.351 0 0.702 0.351 1.053 1.053 1.054 0.702 0 0.702-0.351 0.702-1.054 1.053 0 1.755 0 2.809 0.351-0.351 1.404 1.755 1.755 2.457 2.809-2.809-0.702-5.968-1.755-7.021 0 11.234 2.457 23.521 5.968 35.457 11.936 0 0 0 0 0 0.351h0.352c2.106 1.053 4.213 2.106 6.319 3.16 1.404 0.702 2.457 1.404 3.861 2.457 0 0.351 0 0.702 0.703 0.702h0.351c1.404 1.053 2.809 1.755 4.212 2.809 1.404 2.106 2.809 4.915 5.266 4.213 5.266 8.075 10.883 11.234 15.447 19.659 0.351-1.404 1.404 3.16 3.16 3.511-2.809-0.351 1.755 1.755-1.053 1.404 2.457 2.457 3.16 3.511 3.51 6.319-0.702-1.404-1.053-1.755-1.404-0.351-0.351 2.106 2.457-0.351 3.511 1.756-2.106 0-1.404 1.404-1.054 3.159 1.053-1.053 0.702-2.106 1.756-1.755 1.404 1.404-0.702 1.755-0.351 2.809 1.053-1.404 1.404-0.702 2.808 0-1.755 0.351 1.053 2.809-1.053 1.755 1.404 1.755 1.755 2.809 1.053 4.564-1.404-2.106-0.351-3.511-2.457-3.16 4.213 3.511 2.106 11.585 7.021 12.287-3.16 0.702 0 2.106-1.755 2.458 2.106 0.702 1.053 3.511 3.51 4.213-0.351 1.755-1.053 2.809-1.404 4.563 1.053 1.404 1.404 4.213 3.16 4.564-1.053 1.053-0.351 3.862-1.404 4.915 1.404-0.702 2.106-0.702 3.159 0.702-1.755 1.404-0.351 2.809-1.404 3.16 3.16 8.075-0.702 24.575 1.053 30.894-2.106-1.053-1.404 2.457-2.808 2.457 2.457 1.053 0.351 2.809 1.404 4.564-4.915 2.809 0 10.532-6.67 12.287 0.702 4.915-2.106 7.021-4.213 12.288-0.351-0.351-0.351-0.702-0.702-1.054-0.351 2.457-1.755 2.809-1.054 4.915l-1.404-0.702c0 3.862-5.968 5.968-7.372 11.936-0.351 1.755-5.617 6.319-7.022 8.777-0.702 1.053-0.351 2.809-1.053 0.351-0.351 0.351-1.053 0.351-1.404 0.351-0.351 2.457-2.457 3.16-3.16 6.319-0.702 0.351-1.755-0.702-2.457 0.351 0 0.702 0.702 1.755 0.351 2.458 6.319-0.351 6.319-7.723 11.234-10.181-0.351 1.053-2.457 2.106-1.053 2.808 1.053 0 4.213-3.511 2.457-3.159 1.053 0.702-1.053 1.404-1.404 1.053 1.755-1.404 1.053-3.16 2.458-3.511 1.053 0.702-1.053 2.457 1.053 2.107 1.404-3.16 3.16-3.511 5.266-5.266-1.404 1.404 1.755 1.755 0.351 3.159-5.266 1.053-3.511 7.021-8.777 7.724-1.404 1.053-0.351 1.404-0.702 2.457-1.755-1.053-5.617 4.915-4.213 4.564-1.755 1.755-2.809 1.053-4.212 1.404-0.351 1.404 1.404 0.351 0.702 1.405-2.457-1.053-5.617 2.457-7.724 4.915l-1.053-1.054c-1.053 2.809-3.862 3.16-7.021 5.266 3.511 1.755 9.479-5.617 11.234-4.564 0.351 0 3.16-2.809 4.213-3.861 4.564-3.511 10.181-6.319 12.287-10.181-0.351 0.702-2.457 0.702-1.404-0.351 1.053-0.351 2.106 0.351 3.159 0.351 5.617-7.723 12.638-14.043 17.905-23.17 0.351-0.351 0.702-1.053 1.053-1.756-0.702 2.106-1.755 3.862-2.458 5.968-5.617 3.862-7.723 15.096-14.393 16.851 0.351 3.862-3.16 4.915-4.915 9.479-1.053 1.404-1.755-1.053-2.809 0.702 1.053 4.915-8.777 4.564-8.425 9.128-0.702 0.351-1.755 0.702-2.458 1.404h-0.351c-0.351 0.351-0.351 0.351-0.702 0.702-1.755 1.053-3.16 2.106-4.564 3.16-4.915 2.809-11.585 4.915-16.851 7.723v-0.351c-1.404 0.702-3.16 0.351-2.809 1.756-1.053 0.702-2.106 1.404-3.159 2.106-0.351 0-0.351 0-0.702 0 0 0-0.351-0.351-0.702-0.351-0.702 0-0.702 0-1.054 0.351-4.564 0.351-10.532 2.457-12.287 3.862-1.755-1.053-9.83 0.702-11.234 1.404 0.702 1.053 2.809 0 4.564 0-1.053 0.351-2.106 0.702-2.458 1.404-0.351 0-0.351 0-0.702 0-0.351-1.053-1.404 0-1.755-0.351h0.351c-0.351-1.404-1.404-2.106-3.16-1.755 0 0.702 0 1.053-0.351 1.755 0.702 0 2.809-1.053 2.809 0-0.351 0-0.351 0.351 0 0.351-0.702 0.702-1.755 0.702-2.458 1.054-1.404 0-3.16 0-4.563 0-0.351-0.351-0.702-0.351-1.405-0.703-0.351 0.351-1.053 0.351-1.404 0.703-2.106 0-4.564 0.351-6.319 0.702 0-0.702 0-1.404-0.702-1.405-1.053 1.404-3.16-0.351-5.617 0.352-2.457-0.702 1.404 1.053 4.915 1.755-0.351 0.351-0.702 0.702-1.756 1.053M116.068 308.271c-4.915-4.564-15.096-6.67-16.851-10.181-2.809-0.351-7.021-5.617-10.532-6.319 1.755 0 0.351-1.053 0-1.755-0.702 0.702-1.404 1.053-2.106 1.053 0-2.809-2.809-4.564-5.266-6.319 1.755 1.053 3.16 1.755 5.266 2.106 0-0.702 0-1.404 0.702-1.404 2.457 2.457 5.266 4.915 8.425 7.372 4.213 3.862 25.979 13.692 29.841 15.447 0 0-0.702 1.404-0.351 1.404 1.755 1.053 3.16-1.053 3.511 1.404-5.617 0.702-7.723-3.16-12.639-2.808M277.909 226.824v0.351 0c-0.351 0 0-0.351 0-0.351M136.079 64.281c-0.351 0.351-0.702 0.351-0.702 0.351 0-0.351 0.351-0.351 0.702-0.351M129.409 66.036c0 0.351 0 0.351 0 0 0 0.351 0 0.351 0 0 0 0.351 0 0 0 0M106.238 73.408v0c0.351-0.351 0.351-0.351 0.703-0.351-0.351 0-0.702 0.351-0.703 0.351M162.409 61.823c-0.702 0-1.053 0-1.404-0.351 0.351 0 0.702 0 1.053 0h0.351c0 0 0 0 0 0.351M168.728 62.525c-0.351-0.351-1.404-0.702-2.457-0.702 0-0.351 0.351-0.702 0.351-0.702 0.351 0 0.702 0 1.053 0 0 0 0.351 0 0.351 0.351 0 0 0 0 0-0.351 0.351 0 0.351 0 0.702 0 0.351 0.702 0.702 1.053 0 1.404M180.313 63.579c-1.755 0.351-2.809-0.351-4.564-1.405 1.053 0 2.457 0.351 3.511 0.702 0.351 0 0.702 0.351 1.053 0.703M305.292 113.43c-0.702 0.351-1.053 0.351-1.755-1.053-5.617-11.936-15.798-29.138-30.543-43.532-14.394-14.745-33.702-26.681-51.255-33.001 1.053 0.351 2.457 1.053 1.755 1.756-15.447-5.968-30.192-9.479-44.234-10.883-37.915-5.968-77.585 2.106-108.128 21.766 0.351 0.702 0.351 1.053-0.702 1.755-11.234 7.021-27.032 19.309-39.671 35.458-12.638 16.149-22.468 36.511-26.681 54.766 0.351-1.053 0.702-2.809 1.405-2.107-9.128 36.16-6.67 67.053 5.968 93.735 0.702-0.702-1.755-4.213 0.351-3.862 1.404 3.862 3.16 8.075 5.266 11.936 2.457 5.617 5.266 12.989 9.128 14.745-9.83-19.309-16.5-41.426-17.203-61.085 1.404 2.809 1.053 8.777 3.16 11.234 0.702-13.34-2.457-31.245 2.106-43.883-1.053 6.67-1.755 15.798-1.053 24.925 0 6.67 3.16 25.277 5.266 27.032-0.351-0.351-0.351-2.106 0-2.106 1.053 2.106-1.404 3.16 0.351 3.511 0-0.702 0.351-0.702 0.702-0.703 3.511 7.723 8.075 19.66 11.585 25.628 4.213 7.723 9.83 14.745 16.149 21.064 0 0.351 0.351 0.351 0.352 0.702 0.702 1.755 3.16 3.862 3.861 5.266 0.351 0.702-0.351 1.755 0 2.458 5.266 9.83 12.989 19.66 22.468 27.383 5.968 7.021 15.447 14.394 27.032 20.713 11.234 5.968 24.223 10.883 36.16 13.691 8.426 2.106 18.606 2.457 24.926 3.862 8.426 1.755 23.17-0.702 30.542-2.107 44.234-6.67 88.117-36.862 110.235-80.393 22.819-43.883 22.117-97.596 2.457-138.671" fill="#000000" fill-rule="nonzero" stroke="none" stroke-width="1" stroke-linecap="butt" stroke-linejoin="miter" stroke-miterlimit="10" stroke-dasharray="" stroke-dashoffset="0" font-family="none" font-weight="none" font-size="none" text-anchor="none" style="mix-blend-mode: normal" data-fill-palette-color="tertiary"></path></g><g transform="matrix(1,0,0,1,80,138.6078256173966)"><svg viewBox="0 0 160 82.7843487652068" height="82.7843487652068" width="160"><g><svg viewBox="0 0 160 82.7843487652068" height="82.7843487652068" width="160"><g><svg viewBox="0 0 160 82.7843487652068" height="82.7843487652068" width="160"><g><svg viewBox="0 0 160 82.7843487652068" height="82.7843487652068" width="160"><g id="textblocktransform"><svg viewBox="0 0 160 82.7843487652068" height="82.7843487652068" width="160" id="textblock"><g><svg viewBox="0 0 160 53.45067840117346" height="53.45067840117346" width="160"><g transform="matrix(1,0,0,1,0,0)"><svg width="160" viewBox="0.8 -45.15 136.32999999999998 45.550000000000004" height="53.45067840117346" data-palette-color="#ec9131"><path d="M9.3 0.4Q5.85 0.4 4.55-1.05 3.25-2.5 3.25-5.7L3.25-5.7 3.25-28.55 0.8-28.55 0.8-35.2 3.25-35.2 3.25-42.95 11.75-42.95 11.75-35.2 14.25-35.2 14.25-28.55 11.75-28.55 11.75-8Q11.75-7.05 11.9-6.6 12.05-6.15 12.7-6.15L12.7-6.15Q13.2-6.15 13.65-6.2 14.1-6.25 14.25-6.25L14.25-6.25 14.25-0.25Q13.5-0.05 12.08 0.18 10.65 0.4 9.3 0.4L9.3 0.4ZM27.65 0.4Q16.7 0.4 16.7-10.95L16.7-10.95 16.7-25.65Q16.7-30.85 19.62-33.93 22.55-37 27.65-37L27.65-37Q32.75-37 35.67-33.93 38.6-30.85 38.6-25.65L38.6-25.65 38.6-10.95Q38.6 0.4 27.65 0.4L27.65 0.4ZM27.65-6.35Q28.7-6.35 29.2-7.1 29.7-7.85 29.7-9.15L29.7-9.15 29.7-27.05Q29.7-30.25 27.65-30.25L27.65-30.25Q25.6-30.25 25.6-27.05L25.6-27.05 25.6-9.15Q25.6-7.85 26.1-7.1 26.6-6.35 27.65-6.35L27.65-6.35ZM68.34 0L58.19 0 52.34-36.6 61.09-36.6 62.89-18.1 63.19-12.15 63.54-18.15 65.54-36.6 74.29-36.6 68.34 0ZM85.29-39.05L76.54-39.05 76.54-45.15 85.29-45.15 85.29-39.05ZM85.29 0L76.54 0 76.54-36.6 85.29-36.6 85.29 0ZM98.79 0.4Q87.94 0.4 87.94-10.6L87.94-10.6 87.99-13.5 96.74-13.5 96.79-9.2Q96.79-7.9 97.29-7.23 97.79-6.55 98.94-6.55L98.94-6.55Q100.69-6.55 100.69-9.4L100.69-9.4Q100.69-11.5 99.86-12.7 99.04-13.9 97.24-15.25L97.24-15.25 92.59-18.85Q90.19-20.7 89.14-22.68 88.09-24.65 88.09-28.25L88.09-28.25Q88.09-31.05 89.56-33.02 91.04-35 93.49-36 95.94-37 98.94-37L98.94-37Q109.59-37 109.59-26.4L109.59-26.4 109.59-25.7 100.54-25.7 100.54-27.1Q100.54-28.4 100.11-29.33 99.69-30.25 98.69-30.25L98.69-30.25Q97.79-30.25 97.31-29.73 96.84-29.2 96.84-28.3L96.84-28.3Q96.84-26.3 98.39-25.2L98.39-25.2 103.79-21.25Q106.69-19.1 108.24-16.57 109.79-14.05 109.79-10.2L109.79-10.2Q109.79-5.1 106.89-2.35 103.99 0.4 98.79 0.4L98.79 0.4ZM121.19-39.05L112.44-39.05 112.44-45.15 121.19-45.15 121.19-39.05ZM121.19 0L112.44 0 112.44-36.6 121.19-36.6 121.19 0ZM132.18 0.4Q128.73 0.4 127.43-1.05 126.13-2.5 126.13-5.7L126.13-5.7 126.13-28.55 123.68-28.55 123.68-35.2 126.13-35.2 126.13-42.95 134.63-42.95 134.63-35.2 137.13-35.2 137.13-28.55 134.63-28.55 134.63-8Q134.63-7.05 134.78-6.6 134.93-6.15 135.58-6.15L135.58-6.15Q136.08-6.15 136.53-6.2 136.98-6.25 137.13-6.25L137.13-6.25 137.13-0.25Q136.38-0.05 134.96 0.18 133.53 0.4 132.18 0.4L132.18 0.4Z" opacity="1" transform="matrix(1,0,0,1,0,0)" fill="#000000" class="wordmark-text-0" data-fill-palette-color="primary" id="text-0"></path></svg></g></svg></g><g transform="matrix(1,0,0,1,0,66.0691007554089)"><svg viewBox="0 0 160 16.715248009797918" height="16.715248009797918" width="160"><g transform="matrix(1,0,0,1,0,0)"><svg width="160" viewBox="-0.73 -37.7 398.63 41.660000000000004" height="16.715248009797918" data-palette-color="#79c141"><path d="M22.9-34.91L22.9-34.91Q22.8-34.72 22.83-34.52 22.85-34.33 22.85-34.08L22.85-34.08Q22.75-33.5 22.85-33.5 22.95-33.5 22.95-33.4L22.95-33.4 22.61-32.91Q22.61-32.62 22.49-32.37 22.36-32.13 22.41-31.79L22.41-31.79Q22.27-31.54 22.14-31.3 22.02-31.05 21.78-30.81L21.78-30.81 21.14-30.81Q20.61-30.81 20-30.74 19.38-30.66 18.8-30.66L18.8-30.66Q18.7-30.66 18.55-30.69 18.41-30.71 18.26-30.71L18.26-30.71Q18.16-30.71 18.02-30.69 17.87-30.66 17.68-30.66L17.68-30.66Q16.94-30.66 16.24-30.74 15.53-30.81 14.75-30.81L14.75-30.81Q14.55-30.81 14.36-30.81 14.16-30.81 13.92-30.76L13.92-30.76Q13.87-29.93 13.84-29.08 13.82-28.22 13.82-27.34L13.82-27.34Q13.82-27.1 13.77-26.83 13.72-26.56 13.72-26.32L13.72-26.32Q13.67-25.68 13.65-25.1 13.62-24.51 13.62-23.88L13.62-23.88Q13.62-22.51 13.65-21.14 13.67-19.78 13.72-18.36L13.72-18.36Q13.77-17.63 13.82-16.94 13.87-16.26 13.87-15.53L13.87-15.53Q13.87-13.87 13.82-12.23 13.77-10.6 13.77-8.94L13.77-8.94Q13.77-8.4 13.72-7.93 13.67-7.47 13.67-6.93L13.67-6.93Q13.67-5.81 13.72-4.69 13.77-3.56 13.77-2.44L13.77-2.44Q13.77-1.9 13.75-1.37 13.72-0.83 13.72-0.29L13.72-0.29Q13.48 0.1 13.38 0.39 13.28 0.68 12.79 0.68L12.79 0.68Q12.45 0.59 12.48 0.46 12.5 0.34 12.4 0.24L12.4 0.24Q11.96 0.2 11.74 0.32 11.52 0.44 11.23 0.54L11.23 0.54Q11.08 0.49 10.91 0.49 10.74 0.49 10.6 0.49L10.6 0.49Q10.5 0.49 10.4 0.56 10.3 0.63 9.96 0.63L9.96 0.63Q9.67 0.68 9.62 0.54 9.57 0.39 9.33 0.39L9.33 0.39Q9.08 0.54 8.76 0.61 8.45 0.68 8.15 0.68L8.15 0.68Q7.86 0.49 7.89 0.32 7.91 0.15 7.81-0.05L7.81-0.05Q7.76-0.15 7.64-0.32 7.52-0.49 7.42-0.59L7.42-0.59Q7.52-1.27 7.57-1.81 7.62-2.34 7.62-2.98L7.62-2.98Q7.62-4.25 7.52-5.47 7.42-6.69 7.42-7.96L7.42-7.96Q7.42-8.35 7.52-8.79 7.62-9.23 7.62-9.72L7.62-9.72Q7.52-10.11 7.57-10.18 7.62-10.25 7.62-10.35L7.62-10.35Q7.62-10.64 7.59-10.94 7.57-11.23 7.57-11.52L7.57-11.52Q7.57-12.11 7.59-12.7 7.62-13.28 7.62-13.87L7.62-13.87Q7.62-14.11 7.59-14.38 7.57-14.65 7.57-14.89L7.57-14.89Q7.52-15.33 7.54-15.82 7.57-16.31 7.57-16.8L7.57-16.8Q7.57-19.14 7.5-21.44 7.42-23.73 7.42-26.07L7.42-26.07Q7.42-27.2 7.54-28.37 7.67-29.54 7.67-30.71L7.67-30.71Q7.67-30.86 7.57-31.1 7.47-31.35 7.37-31.45L7.37-31.45Q7.13-31.45 6.91-31.47 6.69-31.49 6.45-31.49L6.45-31.49Q5.91-31.49 5.42-31.35L5.42-31.35Q4.49-31.3 3.64-31.23 2.78-31.15 1.9-31.1L1.9-31.1Q1.32-31.15 1.2-31.13 1.07-31.1 0.93-31.1L0.93-31.1Q0.54-31.1 0.34-31.3L0.34-31.3 0.34-31.93Q0.05-32.52 0.1-32.57 0.15-32.62 0.15-32.71L0.15-32.71Q0.15-32.86-0.12-33.03-0.39-33.2-0.39-33.59L-0.39-33.59Q-0.44-33.98-0.59-34.18-0.73-34.38-0.73-34.57L-0.73-34.57Q-0.73-34.91-0.59-35.35L-0.59-35.35Q-0.15-35.6 0.27-35.69 0.68-35.79 1.22-35.94L1.22-35.94Q1.51-36.04 1.76-36.13 2-36.23 2.29-36.28L2.29-36.28Q2.64-36.33 2.98-36.33 3.32-36.33 3.66-36.38L3.66-36.38Q4.39-36.52 5.2-36.62 6.01-36.72 6.74-36.72L6.74-36.72Q7.42-36.72 8.11-36.55 8.79-36.38 9.33-36.38L9.33-36.38Q10.11-36.38 10.82-36.28 11.52-36.18 12.3-36.18L12.3-36.18Q12.4-36.18 12.62-36.11 12.84-36.04 13.13-36.04L13.13-36.04 17.87-36.04Q18.26-35.94 18.43-35.99 18.6-36.04 18.75-36.04L18.75-36.04Q19.14-36.04 19.48-35.99 19.82-35.94 20.21-35.94L20.21-35.94Q20.56-35.94 20.75-35.99L20.75-35.99Q21.14-35.94 21.48-35.77 21.83-35.6 22.27-35.6L22.27-35.6Q22.46-35.45 22.56-35.23 22.66-35.01 22.9-34.91ZM47.17-4.69L47.17-4.69Q47.12-3.96 47.48-3.59 47.85-3.22 48.09-2.69L48.09-2.69Q48-2 48.24-1.61L48.24-1.61Q48.09-1.32 47.95-0.95 47.8-0.59 47.51-0.34L47.51-0.34Q46.73 0 46.58 0.24 46.43 0.49 45.99 0.49L45.99 0.49Q45.75 0.73 45.46 1 45.16 1.27 44.92 1.51L44.92 1.51Q44.68 1.42 44.58 1.27 44.48 1.12 44.28 0.88L44.28 0.88Q43.8 0.73 43.41 0.37 43.02 0 42.72-0.46 42.43-0.93 42.16-1.44 41.89-1.95 41.7-2.39L41.7-2.39Q41.01-3.66 40.31-4.96 39.6-6.25 38.86-7.52L38.86-7.52Q38.47-8.15 38.11-8.81 37.74-9.47 37.35-10.16L37.35-10.16Q37.25-10.25 37.16-10.38 37.06-10.5 36.96-10.64L36.96-10.64Q36.62-11.13 36.45-11.74 36.28-12.35 35.74-12.74L35.74-12.74Q34.81-12.84 34.06-12.48 33.3-12.11 32.71-11.52L32.71-11.52Q32.76-11.18 32.76-10.89 32.76-10.6 32.76-10.3L32.76-10.3Q32.76-9.18 32.66-8.15 32.57-7.13 32.57-6.01L32.57-6.01Q32.57-5.52 32.61-5 32.66-4.49 32.76-4L32.76-4Q32.61-3.47 32.61-2.83L32.61-2.83Q32.61-2.49 32.69-2.2 32.76-1.9 32.76-1.56L32.76-1.56Q32.76-1.07 32.44-0.9 32.13-0.73 32.22-0.29L32.22-0.29Q31.64-0.05 31.1 0.2 30.56 0.44 29.98 0.54L29.98 0.54Q29.73 0.59 29.49 0.56 29.25 0.54 29.05 0.63L29.05 0.63Q28.81 0.73 28.66 1 28.51 1.27 28.27 1.27L28.27 1.27Q27.98 1.27 27.93 1.05 27.88 0.83 27.73 0.68L27.73 0.68Q27.49 0.59 27.34 0.59 27.19 0.59 27.05 0.44L27.05 0.44Q27.1 0 26.85-0.22 26.61-0.44 26.61-1.12L26.61-1.12Q26.61-1.66 26.68-2.15 26.76-2.64 26.76-3.17L26.76-3.17Q26.76-3.61 26.63-3.98 26.51-4.35 26.41-4.79L26.41-4.79Q26.36-4.98 26.41-5.18 26.46-5.37 26.46-5.57L26.46-5.57Q26.46-6.45 26.39-7.35 26.32-8.25 26.32-9.13L26.32-9.13Q26.32-9.47 26.32-9.77 26.32-10.06 26.36-10.35L26.36-10.35Q26.46-10.64 26.54-10.84 26.61-11.04 26.61-11.33L26.61-11.33Q26.61-12.26 26.41-13.16 26.22-14.06 26.22-14.94L26.22-14.94Q26.22-15.43 26.24-15.94 26.27-16.46 26.27-16.94L26.27-16.94Q26.27-18.36 26.22-19.73 26.17-21.09 26.17-22.46L26.17-22.46Q26.17-23.44 26.22-24.39 26.27-25.34 26.27-26.32L26.27-26.32Q26.27-27.54 26.17-28.74 26.07-29.93 26.07-31.2L26.07-31.2Q26.07-31.64 26.02-31.79 25.97-31.93 25.88-31.96 25.78-31.98 25.66-32.01 25.53-32.03 25.44-32.18L25.44-32.18Q25.44-32.47 25.68-32.59 25.93-32.71 25.93-33.4L25.93-33.4Q25.93-33.79 25.85-34.18 25.78-34.57 25.78-34.96L25.78-34.96Q25.78-35.55 26.02-36.13 26.27-36.72 26.46-37.26L26.46-37.26Q27.05-37.3 27.27-37.26 27.49-37.21 27.73-37.3L27.73-37.3Q27.88-36.77 28.37-36.74 28.85-36.72 29.25-36.62L29.25-36.62Q29.68-36.57 30.1-36.4 30.52-36.23 30.91-36.23L30.91-36.23Q31-35.94 31.32-35.82 31.64-35.69 31.98-35.6L31.98-35.6Q32.37-35.64 32.59-35.94 32.81-36.23 33.2-36.23L33.2-36.23Q33.49-36.23 33.88-35.82 34.27-35.4 34.47-35.16L34.47-35.16Q34.67-35.01 35.2-34.52 35.74-34.03 36.37-33.52 37.01-33.01 37.55-32.54 38.08-32.08 38.23-32.03L38.23-32.03Q40.23-30.03 41.97-28.39 43.7-26.76 45.75-25.44L45.75-25.44Q45.8-25.29 45.87-25.2 45.94-25.1 46.04-24.95L46.04-24.95Q46.04-24.56 45.9-24.37 45.75-24.17 45.75-23.88L45.75-23.88Q45.75-23.73 45.82-23.58 45.9-23.44 45.9-23.29L45.9-23.29Q45.94-23.1 45.92-22.92 45.9-22.75 45.9-22.56L45.9-22.56Q45.9-22.07 46.21-21.68 46.53-21.29 46.53-20.8L46.53-20.8Q46.43-20.36 46.14-20.26 45.85-20.17 45.65-20.02L45.65-20.02Q45.55-19.92 45.48-19.78 45.41-19.63 45.31-19.53L45.31-19.53Q44.24-19.04 43.75-18.63 43.26-18.21 42.72-17.82L42.72-17.82Q42.58-17.72 42.23-17.5 41.89-17.29 41.55-17.07 41.21-16.85 40.94-16.6 40.67-16.36 40.67-16.21L40.67-16.21Q40.67-15.87 41.09-15.26 41.5-14.65 41.7-14.31L41.7-14.31Q42.23-13.43 42.67-12.57 43.11-11.72 43.65-10.89L43.65-10.89Q44.63-9.38 45.48-7.81 46.34-6.25 47.17-4.69ZM39.21-22.85L39.21-22.85Q38.08-24.27 36.79-25.42 35.5-26.56 34.32-27.83L34.32-27.83 33.79-27.93Q33.49-28.42 33.13-28.78 32.76-29.15 32.37-29.54L32.37-29.54Q32.42-29 32.42-28.52 32.42-28.03 32.42-27.49L32.42-27.49Q32.42-25.93 32.35-24.44 32.27-22.95 32.27-21.44L32.27-21.44Q32.27-19.92 32.42-18.55L32.42-18.55Q33.44-18.55 34.27-19.14L34.27-19.14Q34.62-19.38 34.91-19.65 35.2-19.92 35.54-20.17L35.54-20.17Q35.94-20.41 36.45-20.75 36.96-21.09 37.47-21.44 37.99-21.78 38.45-22.14 38.91-22.51 39.21-22.85ZM60.74-37.01L60.83-36.96Q61.08-36.08 61.32-35.23 61.57-34.38 61.91-33.54L61.91-33.54Q62.64-33.45 62.81-33.4 62.98-33.35 63.23-33.25L63.23-33.25Q63.76-31.98 63.89-30.54 64.01-29.1 64.25-27.73L64.25-27.73Q65.18-26.51 65.6-25.12 66.01-23.73 66.55-22.31L66.55-22.31Q66.69-21.83 66.74-21.7 66.79-21.58 66.79-21.48L66.79-21.48Q67.08-20.65 67.38-19.78 67.67-18.9 68.01-18.07L68.01-18.07Q68.16-17.63 68.33-17.21 68.5-16.8 68.65-16.41L68.65-16.41Q68.79-15.92 68.92-15.41 69.04-14.89 69.18-14.4L69.18-14.4Q69.53-13.43 69.92-12.45 70.31-11.47 70.7-10.5L70.7-10.5Q70.84-10.16 71.26-8.98 71.67-7.81 72.11-6.52 72.55-5.22 72.92-4.13 73.29-3.03 73.29-2.78L73.29-2.78Q73.29-2.39 73.36-1.98 73.43-1.56 73.48-1.12L73.48-1.12Q73.29-0.63 72.99-0.59 72.7-0.54 72.46-0.63L72.46-0.63Q72.21-0.54 71.99-0.44 71.77-0.34 71.58-0.24L71.58-0.24Q71.43-0.2 71.33-0.1 71.24 0 71.09 0L71.09 0Q70.5 0 70.33 0.12 70.16 0.24 69.82 0.24L69.82 0.24Q69.38 0.1 69.26 0.22 69.14 0.34 69.04 0.39L69.04 0.39Q68.84 0.49 68.6 0.49 68.35 0.49 68.11 0.54L68.11 0.54Q68.01 0.34 67.94 0.15 67.87-0.05 67.72-0.29L67.72-0.29Q67.18-1.07 66.96-1.81 66.74-2.54 66.6-2.98L66.6-2.98Q66.35-3.52 66.18-4.05 66.01-4.59 65.77-5.13L65.77-5.13Q65.47-5.03 65.23-4.91 64.99-4.79 64.84-4.59L64.84-4.59Q64.25-4.59 64.25-4.44 64.25-4.3 64.16-4.15L64.16-4.15Q63.86-4.05 63.69-3.96 63.52-3.86 63.13-3.91L63.13-3.91Q62.89-3.66 62.64-3.49 62.4-3.32 62.01-3.27L62.01-3.27Q61.62-2.88 61.2-2.61 60.79-2.34 60.25-2.49L60.25-2.49Q59.57-2.34 58.88-2.22 58.2-2.1 57.51-2.1L57.51-2.1Q56.73-2.34 56.54-2.54 56.34-2.73 55.95-2.73L55.95-2.73Q56-3.42 55.66-3.66L55.66-3.66Q55.66-3.81 55.68-4.13 55.71-4.44 55.81-4.54L55.81-4.54Q56.44-4.83 56.54-5.18 56.64-5.52 57.08-5.62L57.08-5.62Q57.17-5.81 57.29-5.98 57.42-6.15 57.51-6.35L57.51-6.35Q57.76-6.45 57.93-6.49 58.1-6.54 58.2-6.79L58.2-6.79Q58.44-6.79 58.93-7.1 59.42-7.42 59.57-7.62L59.57-7.62Q59.96-7.76 60.05-7.89 60.15-8.01 60.3-8.11L60.3-8.11Q60.79-8.06 60.93-8.2L60.93-8.2Q61.32-8.01 61.81-8.01L61.81-8.01Q62.01-8.01 62.15-8.03 62.3-8.06 62.5-8.06L62.5-8.06Q62.89-8.45 63.5-8.57 64.11-8.69 64.5-9.08L64.5-9.08Q64.35-9.47 64.25-10.03 64.16-10.6 63.91-10.94L63.91-10.94Q63.81-11.57 63.59-12.16 63.37-12.74 63.23-13.28L63.23-13.28Q62.69-15.33 61.96-17.29 61.23-19.24 60.74-21.29L60.74-21.29Q60.64-21.53 60.52-21.8 60.4-22.07 60.3-22.31L60.3-22.31Q60.05-21.73 60.05-21.66 60.05-21.58 59.96-21.48L59.96-21.48Q59.91-21.24 59.86-21.07 59.81-20.9 59.71-20.65L59.71-20.65Q59.57-20.26 59.44-19.8 59.32-19.34 59.22-18.95L59.22-18.95Q58.98-18.12 58.78-17.21 58.59-16.31 58.34-15.43L58.34-15.43Q57.86-13.92 57.34-12.43 56.83-10.94 56.34-9.42L56.34-9.42Q56.25-8.74 56.12-8.37 56-8.01 55.88-7.64 55.76-7.28 55.68-6.93 55.61-6.59 55.61-6.4L55.61-6.4Q54.93-4.83 54.46-3.22 54-1.61 53.32-0.1L53.32-0.1Q53.12 0 52.97 0.15 52.83 0.29 52.63 0.29L52.63 0.29Q52.24 0.29 52.22 0.1 52.19-0.1 52-0.1L52-0.1Q51.8-0.1 51.66-0.02 51.51 0.05 51.36 0.15L51.36 0.15Q51.12 0.05 50.8 0.02 50.48 0 50.34-0.2L50.34-0.2Q50 0.05 49.65 0.05L49.65 0.05Q49.26 0.05 48.87-0.2L48.87-0.2Q48.58-0.1 48.29-0.1L48.29-0.1Q48.14-0.1 47.94-0.15 47.75-0.2 47.65-0.29L47.65-0.29Q47.6-0.49 47.6-0.68 47.6-0.88 47.6-1.12L47.6-1.12Q47.6-1.61 47.5-1.86L47.5-1.86Q48.38-4.35 49.21-6.91 50.04-9.47 50.87-12.11L50.87-12.11Q51.31-13.33 51.73-14.5 52.14-15.67 52.53-16.89L52.53-16.89Q52.73-17.58 52.88-18.19 53.02-18.8 53.27-19.38L53.27-19.38Q53.66-20.65 54.07-21.95 54.49-23.24 54.83-24.51L54.83-24.51Q55.02-24.66 55.07-24.85 55.12-25.05 55.22-25.29L55.22-25.29 55.17-25.93Q55.51-26.42 55.63-26.78 55.76-27.15 55.81-27.54L55.81-27.54Q56.05-28.13 56.25-28.81 56.44-29.49 56.54-30.08L56.54-30.08Q56.64-30.86 56.66-31.86 56.68-32.86 56.93-33.54L56.93-33.54Q57.03-33.74 57.1-33.81 57.17-33.89 57.17-34.13L57.17-34.13Q57.27-34.23 57.39-34.35 57.51-34.47 57.56-34.62L57.56-34.62Q57.81-35.01 57.73-35.3 57.66-35.6 57.66-35.94L57.66-35.94Q58.1-36.18 58.05-36.38 58-36.57 58-36.77L58-36.77Q58-37.01 58.32-37.23 58.64-37.45 58.74-37.7L58.74-37.7Q59.03-37.65 59.32-37.62 59.61-37.6 59.91-37.65L59.91-37.65Q60.25-37.01 60.74-37.01L60.74-37.01ZM93.16-37.55L93.16-37.55Q93.55-37.55 93.72-37.38 93.89-37.21 93.99-36.96L93.99-36.96Q94.47-37.01 94.99-36.79 95.5-36.57 95.6-36.38L95.6-36.38Q95.99-36.33 96.09-36.18 96.18-36.04 96.38-35.99L96.38-35.99 96.92-36.04Q97.11-35.84 97.67-35.64 98.23-35.45 98.33-35.21L98.33-35.21Q98.23-34.96 98.26-34.69 98.28-34.42 98.28-34.08L98.28-34.08Q98.14-33.35 97.82-32.76 97.5-32.18 97.26-31.64L97.26-31.64Q97.11-31.4 97.04-31.1 96.97-30.81 96.87-30.57L96.87-30.57Q96.77-30.37 96.7-30.2 96.62-30.03 96.53-29.83L96.53-29.83Q96.53-29.59 96.43-29.32 96.33-29.05 96.23-28.81L96.23-28.81Q96.23-28.52 96.18-28.39 96.14-28.27 96.14-28.17L96.14-28.17Q95.21-25.93 94.67-23.97 94.13-22.02 93.6-20.07L93.6-20.07Q93.35-19.48 93.11-18.6 92.86-17.72 92.5-16.53 92.13-15.33 91.72-13.99 91.3-12.65 90.93-11.5 90.57-10.35 90.3-9.55 90.03-8.74 89.98-8.64L89.98-8.64Q89.84-7.81 89.54-6.96 89.25-6.1 89.06-5.18L89.06-5.18Q88.81-4.88 88.76-4.52 88.71-4.15 88.52-3.81L88.52-3.81Q88.13-3.86 87.88-3.61L87.88-3.61Q87.83-3.22 87.96-2.88 88.08-2.54 88.08-2.15L88.08-2.15Q87.88-1.61 87.59-1.46 87.3-1.32 87.2-0.98L87.2-0.98Q86.86-1.07 86.69-0.88 86.52-0.68 86.32-0.68L86.32-0.68Q85.73-0.83 85.64-0.49L85.64-0.49Q85.34-0.59 85.25-0.42 85.15-0.24 85.05-0.2L85.05-0.2Q84.66-0.2 84.44-0.02 84.22 0.15 83.93 0.2L83.93 0.2Q83.73 0.1 83.54-0.02 83.34-0.15 83.2-0.29L83.2-0.29Q82.9-1.12 82.66-1.93 82.41-2.73 82.17-3.56L82.17-3.56Q82.07-3.96 81.93-4.3 81.78-4.64 81.68-5.03L81.68-5.03Q81.63-5.27 81.63-5.44 81.63-5.62 81.58-5.81L81.58-5.81Q81.49-6.05 81.39-6.3 81.29-6.54 81.19-6.79L81.19-6.79Q80.8-7.86 80.61-8.98L80.61-8.98Q80.36-9.81 80.14-10.62 79.92-11.43 79.73-12.26L79.73-12.26Q79.58-12.94 79.39-13.7 79.19-14.45 78.9-15.04L78.9-15.04Q78.8-15.82 78.48-16.53 78.17-17.24 78.17-17.97L78.17-17.97Q77.92-18.75 77.75-19.53 77.58-20.31 77.34-21.09L77.34-21.09Q77.24-21.48 77.09-21.83 76.95-22.17 76.85-22.51L76.85-22.51Q76.7-22.95 76.6-23.44 76.51-23.93 76.41-24.41L76.41-24.41Q76.26-24.85 76.12-25.27 75.97-25.68 75.82-26.12L75.82-26.12Q75.58-26.95 75.36-27.76 75.14-28.56 74.89-29.39L74.89-29.39Q74.65-30.32 74.43-31.23 74.21-32.13 73.67-32.96L73.67-32.96Q73.53-33.2 73.45-33.52 73.38-33.84 73.23-34.13L73.23-34.13Q73.33-34.52 73.28-35.03 73.23-35.55 73.43-35.84L73.43-35.84Q73.92-35.84 74.6-35.86 75.29-35.89 75.63-35.79L75.63-35.79Q75.82-35.84 75.94-35.94 76.07-36.04 76.26-36.08L76.26-36.08Q76.56-35.94 76.85-35.94L76.85-35.94Q77.29-35.94 77.53-36.13L77.53-36.13Q78.07-35.89 78.12-36.04 78.17-36.18 78.36-36.18L78.36-36.18Q78.65-36.08 78.8-35.77 78.95-35.45 79.09-35.21L79.09-35.21Q79.63-34.23 79.9-33.28 80.17-32.32 80.46-31.25L80.46-31.25Q80.8-30.27 81.1-29.32 81.39-28.37 81.63-27.39L81.63-27.39Q81.78-26.9 81.88-26.42 81.97-25.93 82.07-25.44L82.07-25.44Q82.22-24.9 82.41-24.44 82.61-23.97 82.81-23.44L82.81-23.44Q82.9-22.9 83-22.39 83.1-21.88 83.24-21.34L83.24-21.34Q83.34-20.95 83.49-20.61 83.64-20.26 83.73-19.87L83.73-19.87Q83.83-19.48 83.93-19.07 84.03-18.65 84.12-18.26L84.12-18.26Q84.37-17.29 84.66-16.33 84.95-15.38 85.2-14.4L85.2-14.4Q85.44-14.55 85.49-14.94 85.54-15.33 85.69-15.58L85.69-15.58Q85.78-16.16 86-16.85 86.22-17.53 86.42-18.12L86.42-18.12Q86.47-18.36 86.54-18.55 86.61-18.75 86.71-18.99L86.71-18.99Q86.86-19.29 86.91-19.6 86.96-19.92 87.05-20.26L87.05-20.26Q87.25-20.95 87.47-21.63 87.69-22.31 87.88-23L87.88-23Q88.08-23.63 88.22-24.32 88.37-25 88.62-25.59L88.62-25.59Q88.86-26.12 89.03-26.61 89.2-27.1 89.35-27.64L89.35-27.64Q89.49-28.17 89.59-28.71 89.69-29.25 89.93-29.69L89.93-29.69Q90.03-29.93 90.15-30.25 90.28-30.57 90.37-30.86L90.37-30.86Q90.62-31.64 90.81-32.42 91.01-33.2 91.35-33.98L91.35-33.98Q91.59-34.67 91.94-35.3 92.28-35.94 92.52-36.62L92.52-36.62Q92.72-37.11 92.86-37.26 93.01-37.4 93.16-37.55ZM108.49-12.79L108.49-12.79Q108.58-12.55 109.19-11.77 109.8-10.99 110.59-10.06 111.37-9.13 112.07-8.28 112.78-7.42 113.08-7.03L113.08-7.03Q113.61-6.35 114.13-5.69 114.64-5.03 115.08-4.3L115.08-4.3 115.96-2.83Q116.35-2.34 116.66-2 116.98-1.66 117.18-1.07L117.18-1.07Q117.28-0.68 117.28-0.54L117.28-0.54Q117.28-0.2 117.03-0.05L117.03-0.05Q116.64-0.05 116.62 0.07 116.59 0.2 116.4 0.29L116.4 0.29Q116.2 0.39 115.79 0.42 115.37 0.44 115.13 0.44L115.13 0.44Q114.69 0.44 114.03 0.42 113.37 0.39 112.98 0.54L112.98 0.54Q112.88 0.59 112.69 0.68 112.49 0.78 112.39 0.78L112.39 0.78Q112 0.78 111.83 0.66 111.66 0.54 111.37 0.49L111.37 0.49Q110.98 0.05 110.71-0.42 110.44-0.88 110.1-1.37L110.1-1.37Q109.76-1.71 109.41-1.98 109.07-2.25 108.83-2.59L108.83-2.59Q108.1-3.66 107.31-4.69 106.53-5.71 105.7-6.69L105.7-6.69Q105.31-7.23 104.87-7.67 104.43-8.11 104.04-8.64L104.04-8.64Q103.65-9.13 103.31-9.69 102.97-10.25 102.63-10.79L102.63-10.79Q102.33-11.23 101.85-11.94 101.36-12.65 100.77-13.35 100.19-14.06 99.6-14.7 99.01-15.33 98.62-15.67L98.62-15.67Q98.57-15.97 98.38-16.14 98.18-16.31 97.94-16.46L97.94-16.46Q97.84-16.7 97.72-16.92 97.6-17.14 97.6-17.38L97.6-17.38Q97.6-17.72 97.74-18.02L97.74-18.02Q97.84-18.21 97.87-18.38 97.89-18.55 97.99-18.75L97.99-18.75Q98.23-19.29 98.65-19.8 99.06-20.31 99.31-20.9L99.31-20.9Q99.4-21.04 99.4-21.22 99.4-21.39 99.5-21.53L99.5-21.53Q99.6-21.92 99.92-22.19 100.23-22.46 100.43-22.8L100.43-22.8Q100.67-23.19 100.89-23.61 101.11-24.02 101.36-24.51L101.36-24.51Q102.09-25.73 102.9-26.88 103.7-28.03 104.53-29.2L104.53-29.2Q105.17-30.18 105.78-31.08 106.39-31.98 107.02-32.91L107.02-32.91Q107.36-33.35 107.75-33.94 108.14-34.52 108.61-35.11 109.07-35.69 109.56-36.18 110.05-36.67 110.54-36.96L110.54-36.96Q111.27-37.01 111.51-36.65 111.76-36.28 112.25-36.28L112.25-36.28Q112.88-36.13 113.08-35.89 113.27-35.64 113.52-35.4L113.52-35.4Q114.2-35.4 114.61-35.16 115.03-34.91 115.42-34.42L115.42-34.42Q115.27-33.89 114.98-33.47 114.69-33.06 114.44-32.62L114.44-32.62Q114.05-32.42 113.88-32.08 113.71-31.74 113.37-31.54L113.37-31.54Q112.88-30.71 112.34-29.96 111.81-29.2 111.27-28.47L111.27-28.47Q110.98-28.03 110.66-27.69 110.34-27.34 110.1-26.95L110.1-26.95Q110-26.81 109.93-26.64 109.85-26.46 109.76-26.32L109.76-26.32Q109.17-25.39 108.49-24.58 107.8-23.78 107.22-22.8L107.22-22.8Q107.02-22.46 106.9-22.09 106.78-21.73 106.58-21.39L106.58-21.39Q106.39-21.09 106.02-20.61 105.65-20.12 105.31-19.56 104.97-18.99 104.7-18.48 104.43-17.97 104.43-17.63L104.43-17.63Q104.48-17.38 105.04-16.67 105.61-15.97 106.31-15.16 107.02-14.36 107.66-13.65 108.29-12.94 108.49-12.79ZM111.71-21.68L111.71-21.68Q112.05-20.95 112.44-20.41L112.44-20.41Q112.59-20.21 112.78-20.07 112.98-19.92 113.08-19.68L113.08-19.68Q113.17-19.58 113.27-19.26 113.37-18.95 113.47-18.8L113.47-18.8Q113.61-18.41 114.05-17.92 114.49-17.43 114.49-17.04L114.49-17.04Q114.49-16.8 114.39-16.5 114.3-16.21 114.25-15.97L114.25-15.97Q114.2-15.67 114.2-15.36 114.2-15.04 114-14.79L114-14.79Q113.76-14.55 113.47-14.5 113.17-14.45 112.93-14.26L112.93-14.26Q112.83-14.16 112.64-13.92 112.44-13.67 112.25-13.38 112.05-13.09 111.88-12.82 111.71-12.55 111.71-12.4L111.71-12.4Q111.12-12.35 110.95-12.38 110.78-12.4 110.59-12.35L110.59-12.35Q110.34-12.6 110.07-12.77 109.8-12.94 109.41-13.09L109.41-13.09Q109.32-13.48 108.97-13.99 108.63-14.5 108.39-14.84L108.39-14.84 108.05-15.28Q107.31-16.31 106.7-17.26 106.09-18.21 105.8-19.38L105.8-19.38Q106.73-20.07 107.24-20.41 107.75-20.75 108.34-21.04 108.93-21.34 109.49-21.61 110.05-21.88 110.54-22.27L110.54-22.27Q110.93-22.27 111.07-22.22 111.22-22.17 111.27-22.12 111.32-22.07 111.39-21.95 111.46-21.83 111.71-21.68ZM138.61-8.35L138.61-8.35Q138.95-7.91 139.03-7.64 139.1-7.37 139.2-7.1 139.29-6.84 139.37-6.59 139.44-6.35 139.44-6.3L139.44-6.3Q139.44-5.96 139.32-5.74 139.2-5.52 138.95-5.18L138.95-5.18Q137-4.44 135.09-3.74 133.19-3.03 131.19-2.34L131.19-2.34Q130.65-2.2 130.21-2.03 129.77-1.86 129.24-1.76L129.24-1.76Q129.14-1.66 128.92-1.59 128.7-1.51 128.41-1.42 128.11-1.32 127.84-1.25 127.58-1.17 127.48-1.17L127.48-1.17Q127.09-1.07 126.62-1.1 126.16-1.12 125.72-1.07L125.72-1.07Q125.48-1.03 125.38-0.83 125.28-0.63 125.16-0.42 125.04-0.2 124.79-0.02 124.55 0.15 124.11 0.15L124.11 0.15Q123.67 0.15 123.23 0.1 122.79 0.05 122.3-0.15L122.3-0.15Q122.2-0.29 122.23-0.51 122.25-0.73 122.16-0.88L122.16-0.88Q121.72-0.93 121.47-0.81 121.23-0.68 120.98-0.63L120.98-0.63Q120.84-0.83 120.76-1.1 120.69-1.37 120.5-1.56L120.5-1.56Q120.45-1.81 120.45-2.05 120.45-2.29 120.45-2.54L120.45-2.54Q120.45-2.88 120.47-3.34 120.5-3.81 120.64-4.05L120.64-4.05Q120.79-6.84 120.79-9.62 120.79-12.4 120.79-15.19L120.79-15.19Q120.79-15.48 120.79-15.94 120.79-16.41 120.76-16.89 120.74-17.38 120.72-17.8 120.69-18.21 120.64-18.41L120.64-18.41Q120.69-18.75 120.69-19.07 120.69-19.38 120.69-19.73L120.69-19.73Q120.69-20.02 120.69-20.26 120.69-20.51 120.59-20.75L120.59-20.75Q120.64-20.95 120.64-21.29L120.64-21.29Q120.64-21.53 120.59-21.78 120.54-22.02 120.54-22.27L120.54-22.27Q120.54-22.66 120.57-23.02 120.59-23.39 120.59-23.78L120.59-23.78Q120.59-25.05 120.47-26.29 120.35-27.54 120.35-28.81L120.35-28.81Q120.35-30.47 120.32-32.13 120.3-33.79 120.25-35.45L120.25-35.45Q120.45-35.94 120.45-36.28L120.45-36.28Q121.13-36.62 121.52-36.52 121.91-36.43 122.3-36.43L122.3-36.43Q122.55-36.43 122.74-36.47 122.94-36.52 123.13-36.62L123.13-36.62Q123.38-36.57 123.55-36.5 123.72-36.43 123.96-36.43L123.96-36.43Q124.69-36.57 124.77-36.47 124.84-36.38 124.99-36.28L124.99-36.28Q125.18-36.33 125.3-36.45 125.43-36.57 125.62-36.57L125.62-36.57Q125.92-36.57 126.06-36.21 126.21-35.84 126.4-35.6L126.4-35.6Q126.4-35.06 126.6-34.62L126.6-34.62Q126.7-32.62 126.67-30.66 126.65-28.71 126.79-26.76L126.79-26.76Q126.84-25.88 126.92-24.93 126.99-23.97 126.99-23.1L126.99-23.1Q126.99-21.63 127.01-20.14 127.04-18.65 127.04-17.14L127.04-17.14Q127.04-16.89 127.06-16.7 127.09-16.5 127.09-16.26L127.09-16.26Q127.09-15.67 127.04-15.14 126.99-14.6 126.99-14.06L126.99-14.06 126.99-10.25Q126.99-9.77 126.97-9.25 126.94-8.74 126.99-8.25L126.99-8.25 127.18-7.67Q127.72-7.86 128.28-8.08 128.84-8.3 129.48-8.4L129.48-8.4Q129.87-8.5 130.21-8.59 130.55-8.69 130.94-8.79L130.94-8.79Q131.63-9.18 132.02-9.33 132.41-9.47 132.8-9.62L132.8-9.62Q133.63-9.91 134.41-10.23 135.19-10.55 136.02-10.84L136.02-10.84Q136.41-10.74 136.66-10.94L136.66-10.94Q137.15-10.84 137.54-10.84L137.54-10.84Q138.07-10.3 138.2-10.01 138.32-9.72 138.56-9.47L138.56-9.47Q138.46-9.23 138.59-9.18 138.71-9.13 138.76-8.94L138.76-8.94Q138.95-8.84 138.81-8.67 138.66-8.5 138.61-8.35ZM146.23-6.45L146.57-6.4Q146.62-5.91 146.91-5.76 147.2-5.62 147.59-5.71L147.59-5.71Q147.84-5.18 148.01-5.1 148.18-5.03 148.32-4.93L148.32-4.93 148.91-4.64Q149.25-4.44 149.23-4.25 149.2-4.05 149.4-3.91L149.4-3.91Q149.35-3.56 149.2-3.25 149.06-2.93 149.01-2.54L149.01-2.54Q148.62-2 148.35-1.49 148.08-0.98 147.84-0.44L147.84-0.44Q147.74-0.2 147.62 0.1 147.49 0.39 147.35 0.63L147.35 0.63Q147.25 0.78 147.13 0.95 147.01 1.12 146.91 1.32L146.91 1.32Q146.66 1.71 146.44 2.05 146.23 2.39 145.98 2.78L145.98 2.78Q145.59 2.73 145.57 2.95 145.54 3.17 145.3 3.17L145.3 3.17Q145.1 3.42 144.93 3.59 144.76 3.76 144.57 3.96L144.57 3.96Q144.37 3.86 144.25 3.74 144.13 3.61 143.98 3.52L143.98 3.52Q143.88 2.93 143.74 2.88 143.59 2.83 143.42 2.81 143.25 2.78 143.08 2.69 142.9 2.59 142.71 2.2L142.71 2.2Q142.42 1.42 142.27 1.27L142.27 1.27Q142.12 1.37 142.12 1.59 142.12 1.81 142.03 1.81L142.03 1.81Q141.93 1.56 141.81 1.39 141.68 1.22 141.68 1.07L141.68 1.07 142.03 0.59Q142.07 0.34 142.03 0.05L142.03 0.05Q143.05-1.42 143.91-2.98 144.76-4.54 145.44-6.15L145.44-6.15Q145.69-6.25 145.83-6.35 145.98-6.45 146.23-6.45L146.23-6.45ZM193.29-34.91L193.29-34.91Q193.19-34.72 193.22-34.52 193.24-34.33 193.24-34.08L193.24-34.08Q193.14-33.5 193.24-33.5 193.34-33.5 193.34-33.4L193.34-33.4 193-32.91Q193-32.62 192.88-32.37 192.75-32.13 192.8-31.79L192.8-31.79Q192.66-31.54 192.53-31.3 192.41-31.05 192.17-30.81L192.17-30.81 191.53-30.81Q191-30.81 190.39-30.74 189.77-30.66 189.19-30.66L189.19-30.66Q189.09-30.66 188.94-30.69 188.8-30.71 188.65-30.71L188.65-30.71Q188.55-30.71 188.41-30.69 188.26-30.66 188.07-30.66L188.07-30.66Q187.33-30.66 186.63-30.74 185.92-30.81 185.14-30.81L185.14-30.81Q184.94-30.81 184.75-30.81 184.55-30.81 184.31-30.76L184.31-30.76Q184.26-29.93 184.23-29.08 184.21-28.22 184.21-27.34L184.21-27.34Q184.21-27.1 184.16-26.83 184.11-26.56 184.11-26.32L184.11-26.32Q184.06-25.68 184.04-25.1 184.01-24.51 184.01-23.88L184.01-23.88Q184.01-22.51 184.04-21.14 184.06-19.78 184.11-18.36L184.11-18.36Q184.16-17.63 184.21-16.94 184.26-16.26 184.26-15.53L184.26-15.53Q184.26-13.87 184.21-12.23 184.16-10.6 184.16-8.94L184.16-8.94Q184.16-8.4 184.11-7.93 184.06-7.47 184.06-6.93L184.06-6.93Q184.06-5.81 184.11-4.69 184.16-3.56 184.16-2.44L184.16-2.44Q184.16-1.9 184.14-1.37 184.11-0.83 184.11-0.29L184.11-0.29Q183.87 0.1 183.77 0.39 183.67 0.68 183.18 0.68L183.18 0.68Q182.84 0.59 182.87 0.46 182.89 0.34 182.79 0.24L182.79 0.24Q182.35 0.2 182.13 0.32 181.91 0.44 181.62 0.54L181.62 0.54Q181.47 0.49 181.3 0.49 181.13 0.49 180.99 0.49L180.99 0.49Q180.89 0.49 180.79 0.56 180.69 0.63 180.35 0.63L180.35 0.63Q180.06 0.68 180.01 0.54 179.96 0.39 179.72 0.39L179.72 0.39Q179.47 0.54 179.15 0.61 178.84 0.68 178.54 0.68L178.54 0.68Q178.25 0.49 178.28 0.32 178.3 0.15 178.2-0.05L178.2-0.05Q178.15-0.15 178.03-0.32 177.91-0.49 177.81-0.59L177.81-0.59Q177.91-1.27 177.96-1.81 178.01-2.34 178.01-2.98L178.01-2.98Q178.01-4.25 177.91-5.47 177.81-6.69 177.81-7.96L177.81-7.96Q177.81-8.35 177.91-8.79 178.01-9.23 178.01-9.72L178.01-9.72Q177.91-10.11 177.96-10.18 178.01-10.25 178.01-10.35L178.01-10.35Q178.01-10.64 177.98-10.94 177.96-11.23 177.96-11.52L177.96-11.52Q177.96-12.11 177.98-12.7 178.01-13.28 178.01-13.87L178.01-13.87Q178.01-14.11 177.98-14.38 177.96-14.65 177.96-14.89L177.96-14.89Q177.91-15.33 177.93-15.82 177.96-16.31 177.96-16.8L177.96-16.8Q177.96-19.14 177.89-21.44 177.81-23.73 177.81-26.07L177.81-26.07Q177.81-27.2 177.93-28.37 178.06-29.54 178.06-30.71L178.06-30.71Q178.06-30.86 177.96-31.1 177.86-31.35 177.76-31.45L177.76-31.45Q177.52-31.45 177.3-31.47 177.08-31.49 176.84-31.49L176.84-31.49Q176.3-31.49 175.81-31.35L175.81-31.35Q174.88-31.3 174.03-31.23 173.17-31.15 172.29-31.1L172.29-31.1Q171.71-31.15 171.59-31.13 171.46-31.1 171.32-31.1L171.32-31.1Q170.93-31.1 170.73-31.3L170.73-31.3 170.73-31.93Q170.44-32.52 170.49-32.57 170.54-32.62 170.54-32.71L170.54-32.71Q170.54-32.86 170.27-33.03 170-33.2 170-33.59L170-33.59Q169.95-33.98 169.8-34.18 169.66-34.38 169.66-34.57L169.66-34.57Q169.66-34.91 169.8-35.35L169.8-35.35Q170.24-35.6 170.66-35.69 171.07-35.79 171.61-35.94L171.61-35.94Q171.9-36.04 172.15-36.13 172.39-36.23 172.69-36.28L172.69-36.28Q173.03-36.33 173.37-36.33 173.71-36.33 174.05-36.38L174.05-36.38Q174.78-36.52 175.59-36.62 176.4-36.72 177.13-36.72L177.13-36.72Q177.81-36.72 178.5-36.55 179.18-36.38 179.72-36.38L179.72-36.38Q180.5-36.38 181.21-36.28 181.91-36.18 182.69-36.18L182.69-36.18Q182.79-36.18 183.01-36.11 183.23-36.04 183.52-36.04L183.52-36.04 188.26-36.04Q188.65-35.94 188.82-35.99 188.99-36.04 189.14-36.04L189.14-36.04Q189.53-36.04 189.87-35.99 190.21-35.94 190.61-35.94L190.61-35.94Q190.95-35.94 191.14-35.99L191.14-35.99Q191.53-35.94 191.87-35.77 192.22-35.6 192.66-35.6L192.66-35.6Q192.85-35.45 192.95-35.23 193.05-35.01 193.29-34.91ZM219.31-19.38L219.31-19.38Q219.22-19.19 219.12-19.02 219.02-18.85 218.97-18.65L218.97-18.65Q219.17-18.46 219.34-18.24 219.51-18.02 219.51-17.77L219.51-17.77Q219.51-17.58 219.44-17.41 219.36-17.24 219.41-17.09L219.41-17.09Q219.22-16.75 219-16.46 218.78-16.16 218.68-15.82L218.68-15.82Q218.48-15.63 218.36-15.43 218.24-15.23 218.14-15.04L218.14-15.04Q217.9-14.94 217.82-14.72 217.75-14.5 217.56-14.36L217.56-14.36Q217.51-14.16 217.07-13.43 216.63-12.7 216.09-11.87 215.55-11.04 215.07-10.25 214.58-9.47 214.38-9.23L214.38-9.23Q214.28-8.98 214.16-8.84 214.04-8.69 213.89-8.5L213.89-8.5Q213.8-8.35 213.75-8.18 213.7-8.01 213.6-7.91L213.6-7.91Q213.5-7.71 213.38-7.57 213.26-7.42 213.16-7.18L213.16-7.18Q212.67-6.54 212.18-5.66 211.7-4.79 211.26-4.1L211.26-4.1Q211.01-3.71 210.79-3.32 210.57-2.93 210.33-2.54L210.33-2.54Q210.08-2.15 209.84-1.81 209.6-1.46 209.35-1.07L209.35-1.07Q208.96-0.78 208.67-0.37 208.38 0.05 207.99 0.34L207.99 0.34Q207.35 0.34 207.2-0.24L207.2-0.24Q206.57-0.39 206.57-0.24 206.57-0.1 206.57 0L206.57 0Q206.37 0.1 206.3 0.29 206.23 0.49 206.03 0.59L206.03 0.59Q205.64 0.49 205.37 0.27 205.1 0.05 204.62 0.1L204.62 0.1Q204.42-0.2 204.18-0.42 203.93-0.63 203.74-0.88L203.74-0.88Q203.64-1.17 203.47-1.37 203.3-1.56 203.15-1.76L203.15-1.76Q203-2 202.86-2.2 202.71-2.39 202.57-2.59L202.57-2.59Q202.22-3.03 201.91-3.44 201.59-3.86 201.34-4.3L201.34-4.3Q200.95-4.88 200.59-5.49 200.22-6.1 199.83-6.69L199.83-6.69Q199.64-6.98 199.44-7.28 199.25-7.57 199.1-7.86L199.1-7.86Q199-8.11 198.83-8.45 198.66-8.79 198.42-8.89L198.42-8.89Q198.32-9.28 198.07-9.47 197.83-9.67 197.58-9.96L197.58-9.96Q197.24-10.35 196.95-10.82 196.66-11.28 196.36-11.77L196.36-11.77Q195.39-13.13 194.53-14.45 193.68-15.77 192.85-17.19L192.85-17.19Q193.09-17.97 193.09-18.36 193.09-18.75 193.34-18.99L193.34-18.99Q193.34-19.19 193.43-19.58L193.43-19.58Q194.07-20.65 194.66-21.53L194.66-21.53Q195.19-22.36 195.41-22.9 195.63-23.44 195.88-24.02L195.88-24.02Q196.12-24.17 196.27-24.39 196.41-24.61 196.66-24.8L196.66-24.8Q196.75-25.34 197.1-25.71 197.44-26.07 197.54-26.61L197.54-26.61Q197.98-26.95 198.02-27.39L198.02-27.39Q198.66-27.83 198.81-28.56L198.81-28.56Q199.2-28.96 199.46-29.44 199.73-29.93 199.98-30.47L199.98-30.47Q200.56-30.96 200.91-31.74L200.91-31.74Q201.2-31.93 201.34-32.28 201.49-32.62 201.74-32.86L201.74-32.86Q202.13-33.5 202.35-33.91 202.57-34.33 202.81-34.77L202.81-34.77Q203.15-34.77 203.25-35.01 203.35-35.25 203.64-35.21L203.64-35.21Q203.64-35.64 203.88-35.99L203.88-35.99Q203.98-36.04 204.18-36.11 204.37-36.18 204.37-36.28L204.37-36.28Q204.27-36.87 204.42-36.96 204.57-37.06 204.67-37.16L204.67-37.16Q205.2-37.06 205.4-37.01 205.59-36.96 206.03-36.67L206.03-36.67Q206.52-36.67 206.72-36.47 206.91-36.28 207.16-36.18L207.16-36.18Q207.35-35.99 207.47-35.79 207.59-35.6 207.84-35.5L207.84-35.5Q208.23-34.96 208.67-34.33 209.11-33.69 209.5-33.15L209.5-33.15Q210.04-32.42 210.6-31.76 211.16-31.1 211.65-30.32L211.65-30.32Q211.79-30.08 212.18-29.47 212.58-28.86 213.06-28.17 213.55-27.49 213.94-26.93 214.33-26.37 214.48-26.27L214.48-26.27Q214.63-26.03 215.11-25.34 215.6-24.66 216.16-23.9 216.73-23.14 217.26-22.46 217.8-21.78 218-21.58L218-21.58Q218.53-20.85 218.8-20.39 219.07-19.92 219.31-19.38ZM208.13-10.21L208.13-10.21Q208.67-10.94 208.96-11.52 209.25-12.11 209.55-12.7L209.55-12.7Q210.04-13.28 210.13-13.53 210.23-13.77 210.38-14.01L210.38-14.01Q210.77-14.6 211.18-15.19 211.6-15.77 211.84-16.46L211.84-16.46Q212.14-16.65 212.28-16.94 212.43-17.24 212.72-17.48L212.72-17.48Q212.43-18.51 212.04-19.07 211.65-19.63 211.26-20.17L211.26-20.17Q211.11-20.41 210.96-20.65 210.82-20.9 210.67-21.14L210.67-21.14Q210.48-21.29 210.35-21.44 210.23-21.58 210.08-21.73L210.08-21.73Q209.99-21.97 209.79-22.36L209.79-22.36Q209.6-22.61 209.4-22.8 209.21-23 209.06-23.29L209.06-23.29Q208.86-23.49 208.57-23.83 208.28-24.17 207.96-24.58 207.64-25 207.4-25.37 207.16-25.73 207.01-25.98L207.01-25.98Q206.91-26.22 206.84-26.39 206.76-26.56 206.67-26.76L206.67-26.76Q206.42-27.1 206.18-27.37 205.93-27.64 205.69-27.98L205.69-27.98Q205.54-27.88 205.42-27.86 205.3-27.83 205.2-27.73L205.2-27.73Q204.86-27.1 204.45-26.56 204.03-26.03 203.64-25.39L203.64-25.39Q203.3-24.8 202.96-24.19 202.61-23.58 202.27-23L202.27-23Q202.03-22.66 201.81-22.34 201.59-22.02 201.34-21.63L201.34-21.63Q201.1-21.29 200.93-20.92 200.76-20.56 200.51-20.21L200.51-20.21Q200.12-19.73 199.88-19.34 199.64-18.95 199.39-18.41L199.39-18.41Q199.54-18.12 199.86-17.6 200.17-17.09 200.51-16.58 200.86-16.06 201.12-15.63 201.39-15.19 201.44-15.04L201.44-15.04Q201.83-14.7 202.08-14.28 202.32-13.87 202.71-13.48L202.71-13.48Q202.91-13.09 203.15-12.79 203.4-12.5 203.64-12.16L203.64-12.16Q203.88-11.82 204.27-11.16 204.67-10.5 205.06-9.81 205.45-9.13 205.84-8.54 206.23-7.96 206.47-7.81L206.47-7.81Q206.96-8.35 207.28-9.01 207.59-9.67 208.13-10.21ZM242.5-5.86L242.5-5.86Q242.02-5.81 241.92-5.91L241.92-5.91Q241.72-5.81 241.55-5.71 241.38-5.62 241.19-5.47L241.19-5.47Q240.5-5.22 239.84-4.83 239.18-4.44 238.5-4.1L238.5-4.1Q238.11-3.91 237.74-3.78 237.38-3.66 236.99-3.47L236.99-3.47Q236.4-3.17 235.81-2.86 235.23-2.54 234.59-2.29L234.59-2.29Q234.25-2.2 233.93-2.1 233.62-2 233.28-1.9L233.28-1.9Q232.89-1.76 232.57-1.59 232.25-1.42 231.91-1.27L231.91-1.27Q231.66-1.17 231.4-1.1 231.13-1.03 230.83-0.88L230.83-0.88Q230.59-0.78 230.42-0.63 230.25-0.49 230-0.39L230-0.39Q229.61-0.24 229.2-0.1 228.78 0.05 228.39 0.24L228.39 0.24Q228 0.44 227.83 0.61 227.66 0.78 227.17 0.93L227.17 0.93Q226.68 1.22 226.64 1.25 226.59 1.27 226.49 1.27L226.49 1.27Q226.34 1.37 226.22 1.44 226.1 1.51 225.95 1.61L225.95 1.61Q225.66 1.61 225.37 1.66 225.07 1.71 224.78 1.71L224.78 1.71Q224.44 1.51 224.32 1.32 224.19 1.12 224.19 0.78L224.19 0.78Q224 0.54 223.83 0.24 223.66-0.05 223.46-0.29L223.46-0.29Q223.12-0.1 223.05-0.32 222.97-0.54 222.92-0.81 222.88-1.07 222.83-1.34 222.78-1.61 222.73-1.71L222.73-1.71Q222.48-2.64 222.48-3.08L222.48-3.08Q222.48-3.32 222.58-3.39 222.68-3.47 222.68-3.61L222.68-3.61Q222.73-4.1 222.78-4.74 222.83-5.37 222.83-6.05 222.83-6.74 222.83-7.42 222.83-8.11 222.83-8.64L222.83-8.64Q222.83-10.84 222.78-12.92 222.73-14.99 222.73-17.09L222.73-17.09Q222.73-18.07 222.78-19.04 222.83-20.02 222.83-21L222.83-21Q222.83-23.39 222.9-25.73 222.97-28.08 222.97-30.47L222.97-30.47Q222.97-31.45 222.88-32.45 222.78-33.45 222.73-34.47L222.73-34.47Q222.68-35.01 222.78-35.33 222.88-35.64 222.83-35.99L222.83-35.99Q222.97-36.04 223.36-36.04 223.75-36.04 224.17-36.06 224.58-36.08 224.95-36.11 225.32-36.13 225.41-36.18L225.41-36.18Q225.76-35.94 226.1-35.94L226.1-35.94Q226.44-35.94 226.73-36.23L226.73-36.23Q226.98-36.13 227-36.08 227.03-36.04 227.27-36.04L227.27-36.04Q227.71-36.08 227.95-36.11 228.2-36.13 228.39-36.13L228.39-36.13Q228.93-35.74 229.05-35.18 229.17-34.62 229.22-34.01 229.27-33.4 229.3-32.79 229.32-32.18 229.32-31.79L229.32-31.79Q229.32-31.49 229.37-31.18 229.42-30.86 229.42-30.52L229.42-30.52Q229.42-30.27 229.39-30.03 229.37-29.79 229.37-29.54L229.37-29.54Q229.37-28.13 229.39-26.66 229.42-25.2 229.42-23.78L229.42-23.78Q229.42-21.24 229.35-18.68 229.27-16.11 229.27-13.57L229.27-13.57Q229.27-13.04 229.32-12.5 229.37-11.96 229.37-11.43L229.37-11.43Q229.37-11.13 229.35-10.84 229.32-10.55 229.32-10.25L229.32-10.25Q229.32-8.45 229.47-6.64L229.47-6.64Q229.66-6.69 230.3-6.91 230.93-7.13 231.62-7.4 232.3-7.67 232.89-7.93 233.47-8.2 233.62-8.35L233.62-8.35Q233.81-8.35 234.15-8.5 234.5-8.64 234.89-8.86 235.28-9.08 235.64-9.28 236.01-9.47 236.16-9.62L236.16-9.62Q236.11-10.6 236.11-11.6 236.11-12.6 236.11-13.57L236.11-13.57Q236.11-16.26 236.18-18.95 236.25-21.63 236.25-24.41L236.25-24.41Q236.25-26.12 236.21-27.83 236.16-29.54 236.16-31.25L236.16-31.25Q236.16-31.79 236.18-32.35 236.21-32.91 236.21-33.45L236.21-33.45Q236.21-34.28 236.18-35.08 236.16-35.89 236.25-36.72L236.25-36.72Q236.74-36.96 236.79-36.96L236.79-36.96Q237.08-36.96 237.21-36.96 237.33-36.96 237.43-36.87L237.43-36.87Q237.57-36.82 237.69-36.84 237.82-36.87 237.96-36.87L237.96-36.87Q238.21-36.87 238.45-36.77 238.7-36.67 238.94-36.67L238.94-36.67Q239.33-36.72 239.35-36.57 239.38-36.43 239.53-36.43L239.53-36.43Q239.92-36.57 240.06-36.43L240.06-36.43Q240.21-36.33 240.6-36.16 240.99-35.99 241.43-35.79 241.87-35.6 242.21-35.42 242.55-35.25 242.55-35.11L242.55-35.11Q242.7-34.33 242.65-33.45 242.6-32.57 242.6-31.79L242.6-31.79Q242.6-31.1 242.65-30.42 242.7-29.74 242.7-29.05L242.7-29.05Q242.7-28.66 242.7-28.27 242.7-27.88 242.75-27.54L242.75-27.54Q242.8-27.29 242.8-27.12 242.8-26.95 242.8-26.76L242.8-26.76Q242.8-26.51 242.89-26.12L242.89-26.12Q242.85-25.88 242.85-25.61 242.85-25.34 242.85-25.1L242.85-25.1Q242.85-24.41 242.89-23.68 242.94-22.95 242.94-22.22L242.94-22.22Q242.94-21.73 242.87-21.29 242.8-20.85 242.8-20.41L242.8-20.41 242.85-19.48Q242.85-18.99 242.89-18.51 242.94-18.02 242.94-17.48L242.94-17.48Q242.94-17.24 242.92-16.99 242.89-16.75 242.85-16.5L242.85-16.5Q242.8-16.26 242.8-15.97 242.8-15.67 242.8-15.43L242.8-15.43Q242.8-14.75 242.85-14.06 242.89-13.38 242.89-12.7L242.89-12.7Q242.89-12.26 242.87-11.84 242.85-11.43 242.85-10.99L242.85-10.99Q242.85-10.11 242.92-9.18 242.99-8.25 242.99-7.37L242.99-7.37Q242.99-6.98 242.89-6.54 242.8-6.1 242.5-5.86ZM270.72-4.69L270.72-4.69Q270.68-3.96 271.04-3.59 271.41-3.22 271.65-2.69L271.65-2.69Q271.55-2 271.8-1.61L271.8-1.61Q271.65-1.32 271.51-0.95 271.36-0.59 271.07-0.34L271.07-0.34Q270.29 0 270.14 0.24 269.99 0.49 269.55 0.49L269.55 0.49Q269.31 0.73 269.02 1 268.72 1.27 268.48 1.51L268.48 1.51Q268.23 1.42 268.14 1.27 268.04 1.12 267.84 0.88L267.84 0.88Q267.36 0.73 266.96 0.37 266.57 0 266.28-0.46 265.99-0.93 265.72-1.44 265.45-1.95 265.26-2.39L265.26-2.39Q264.57-3.66 263.86-4.96 263.16-6.25 262.42-7.52L262.42-7.52Q262.03-8.15 261.67-8.81 261.3-9.47 260.91-10.16L260.91-10.16Q260.81-10.25 260.71-10.38 260.62-10.5 260.52-10.64L260.52-10.64Q260.18-11.13 260.01-11.74 259.84-12.35 259.3-12.74L259.3-12.74Q258.37-12.84 257.61-12.48 256.86-12.11 256.27-11.52L256.27-11.52Q256.32-11.18 256.32-10.89 256.32-10.6 256.32-10.3L256.32-10.3Q256.32-9.18 256.22-8.15 256.12-7.13 256.12-6.01L256.12-6.01Q256.12-5.52 256.17-5 256.22-4.49 256.32-4L256.32-4Q256.17-3.47 256.17-2.83L256.17-2.83Q256.17-2.49 256.25-2.2 256.32-1.9 256.32-1.56L256.32-1.56Q256.32-1.07 256-0.9 255.69-0.73 255.78-0.29L255.78-0.29Q255.2-0.05 254.66 0.2 254.12 0.44 253.54 0.54L253.54 0.54Q253.29 0.59 253.05 0.56 252.8 0.54 252.61 0.63L252.61 0.63Q252.37 0.73 252.22 1 252.07 1.27 251.83 1.27L251.83 1.27Q251.54 1.27 251.49 1.05 251.44 0.83 251.29 0.68L251.29 0.68Q251.05 0.59 250.9 0.59 250.75 0.59 250.61 0.44L250.61 0.44Q250.66 0 250.41-0.22 250.17-0.44 250.17-1.12L250.17-1.12Q250.17-1.66 250.24-2.15 250.31-2.64 250.31-3.17L250.31-3.17Q250.31-3.61 250.19-3.98 250.07-4.35 249.97-4.79L249.97-4.79Q249.92-4.98 249.97-5.18 250.02-5.37 250.02-5.57L250.02-5.57Q250.02-6.45 249.95-7.35 249.87-8.25 249.87-9.13L249.87-9.13Q249.87-9.47 249.87-9.77 249.87-10.06 249.92-10.35L249.92-10.35Q250.02-10.64 250.09-10.84 250.17-11.04 250.17-11.33L250.17-11.33Q250.17-12.26 249.97-13.16 249.78-14.06 249.78-14.94L249.78-14.94Q249.78-15.43 249.8-15.94 249.83-16.46 249.83-16.94L249.83-16.94Q249.83-18.36 249.78-19.73 249.73-21.09 249.73-22.46L249.73-22.46Q249.73-23.44 249.78-24.39 249.83-25.34 249.83-26.32L249.83-26.32Q249.83-27.54 249.73-28.74 249.63-29.93 249.63-31.2L249.63-31.2Q249.63-31.64 249.58-31.79 249.53-31.93 249.44-31.96 249.34-31.98 249.22-32.01 249.09-32.03 249-32.18L249-32.18Q249-32.47 249.24-32.59 249.48-32.71 249.48-33.4L249.48-33.4Q249.48-33.79 249.41-34.18 249.34-34.57 249.34-34.96L249.34-34.96Q249.34-35.55 249.58-36.13 249.83-36.72 250.02-37.26L250.02-37.26Q250.61-37.3 250.83-37.26 251.05-37.21 251.29-37.3L251.29-37.3Q251.44-36.77 251.93-36.74 252.41-36.72 252.8-36.62L252.8-36.62Q253.24-36.57 253.66-36.4 254.07-36.23 254.46-36.23L254.46-36.23Q254.56-35.94 254.88-35.82 255.2-35.69 255.54-35.6L255.54-35.6Q255.93-35.64 256.15-35.94 256.37-36.23 256.76-36.23L256.76-36.23Q257.05-36.23 257.44-35.82 257.83-35.4 258.03-35.16L258.03-35.16Q258.22-35.01 258.76-34.52 259.3-34.03 259.93-33.52 260.57-33.01 261.11-32.54 261.64-32.08 261.79-32.03L261.79-32.03Q263.79-30.03 265.52-28.39 267.26-26.76 269.31-25.44L269.31-25.44Q269.36-25.29 269.43-25.2 269.5-25.1 269.6-24.95L269.6-24.95Q269.6-24.56 269.45-24.37 269.31-24.17 269.31-23.88L269.31-23.88Q269.31-23.73 269.38-23.58 269.45-23.44 269.45-23.29L269.45-23.29Q269.5-23.1 269.48-22.92 269.45-22.75 269.45-22.56L269.45-22.56Q269.45-22.07 269.77-21.68 270.09-21.29 270.09-20.8L270.09-20.8Q269.99-20.36 269.7-20.26 269.41-20.17 269.21-20.02L269.21-20.02Q269.11-19.92 269.04-19.78 268.97-19.63 268.87-19.53L268.87-19.53Q267.79-19.04 267.31-18.63 266.82-18.21 266.28-17.82L266.28-17.82Q266.13-17.72 265.79-17.5 265.45-17.29 265.11-17.07 264.77-16.85 264.5-16.6 264.23-16.36 264.23-16.21L264.23-16.21Q264.23-15.87 264.65-15.26 265.06-14.65 265.26-14.31L265.26-14.31Q265.79-13.43 266.23-12.57 266.67-11.72 267.21-10.89L267.21-10.89Q268.19-9.38 269.04-7.81 269.89-6.25 270.72-4.69ZM262.77-22.85L262.77-22.85Q261.64-24.27 260.35-25.42 259.05-26.56 257.88-27.83L257.88-27.83 257.35-27.93Q257.05-28.42 256.69-28.78 256.32-29.15 255.93-29.54L255.93-29.54Q255.98-29 255.98-28.52 255.98-28.03 255.98-27.49L255.98-27.49Q255.98-25.93 255.91-24.44 255.83-22.95 255.83-21.44L255.83-21.44Q255.83-19.92 255.98-18.55L255.98-18.55Q257-18.55 257.83-19.14L257.83-19.14Q258.18-19.38 258.47-19.65 258.76-19.92 259.1-20.17L259.1-20.17Q259.49-20.41 260.01-20.75 260.52-21.09 261.03-21.44 261.54-21.78 262.01-22.14 262.47-22.51 262.77-22.85ZM283.81-35.99L283.81-35.99Q283.91-35.79 284.03-35.72 284.15-35.64 284.2-35.4L284.2-35.4Q284.54-35.16 284.74-35.03 284.93-34.91 284.98-34.62L284.98-34.62Q285.42-34.28 285.49-34.18 285.57-34.08 285.61-33.94L285.61-33.94Q285.86-33.74 286.08-33.59 286.3-33.45 286.4-33.15L286.4-33.15Q286.79-32.81 286.88-32.62 286.98-32.42 287.03-32.18L287.03-32.18Q286.84-31.84 286.25-31.25 285.66-30.66 284.93-30 284.2-29.35 283.51-28.74 282.83-28.13 282.44-27.78L282.44-27.78Q282.34-27.59 282.2-27.44 282.05-27.29 281.95-27.1L281.95-27.1Q281.66-26.86 281.42-26.59 281.17-26.32 280.83-26.17L280.83-26.17Q280.34-25.49 279.46-24.83 278.58-24.17 278.29-23.54L278.29-23.54Q278.34-23.39 278.51-23.24 278.68-23.1 278.78-23L278.78-23Q279.17-22.61 279.71-22.29 280.24-21.97 280.63-21.58L280.63-21.58Q281.02-21.24 281.42-20.92 281.81-20.61 282.2-20.26L282.2-20.26Q282.39-20.07 282.68-19.68L282.68-19.68Q283.17-19.29 283.64-18.97 284.1-18.65 284.54-18.26L284.54-18.26Q285.47-17.48 286.35-16.67 287.23-15.87 288.2-15.09L288.2-15.09 288.59-14.65Q288.59-14.26 288.81-13.75 289.03-13.23 289.23-12.89L289.23-12.89Q289.13-12.4 289.25-12.28 289.37-12.16 289.47-12.06L289.47-12.06Q289.42-11.13 289.52-10.84L289.52-10.84Q288.69-10.11 287.98-9.5 287.27-8.89 286.74-8.3L286.74-8.3Q286.3-7.76 285.83-7.35 285.37-6.93 284.83-6.45L284.83-6.45Q284.54-6.05 284.35-5.91L284.35-5.91Q284-5.57 283.66-5.37L283.66-5.37Q283.08-4.83 282.51-4.35 281.95-3.86 281.42-3.37L281.42-3.37Q281.02-3.03 280.68-2.71 280.34-2.39 280-2L280-2Q279.71-1.71 279.34-1.32 278.97-0.93 278.58-0.68L278.58-0.68Q278.44-0.39 278.19-0.17 277.95 0.05 277.75 0.29L277.75 0.29Q277.41 0.49 277.12 0.68 276.83 0.88 276.43 1.07L276.43 1.07Q276.04 0.78 275.68 0.54 275.31 0.29 274.87 0.2L274.87 0.2Q274.58-0.05 274.43-0.29 274.29-0.54 273.9-0.63L273.9-0.63Q273.8-0.78 273.68-0.95 273.55-1.12 273.46-1.32L273.46-1.32Q272.87-1.37 272.53-2.05L272.53-2.05Q272.63-2.34 272.8-2.49 272.97-2.64 272.87-3.03L272.87-3.03Q273.16-3.52 273.58-3.88 273.99-4.25 274.38-4.64L274.38-4.64Q274.82-5.03 275.19-5.44 275.56-5.86 276-6.25L276-6.25Q276.24-6.49 276.48-6.71 276.73-6.93 277.02-7.18L277.02-7.18Q277.56-7.71 278.12-8.18 278.68-8.64 279.27-9.18L279.27-9.18Q280.05-9.96 280.88-10.67 281.71-11.38 282.39-12.26L282.39-12.26Q282.34-12.45 282.25-12.52 282.15-12.6 282.1-12.74L282.1-12.74Q281.32-13.48 280.56-14.18 279.8-14.89 278.93-15.43L278.93-15.43Q278.63-15.72 278.53-15.92L278.53-15.92Q277.66-16.55 276.85-17.33 276.04-18.12 275.07-18.65L275.07-18.65Q274.87-18.9 274.6-19.07 274.34-19.24 274.09-19.38L274.09-19.38Q273.94-19.63 273.77-19.8 273.6-19.97 273.36-20.07L273.36-20.07Q272.97-20.41 272.85-20.63 272.72-20.85 272.43-20.9L272.43-20.9Q272.33-21.14 272.11-21.29 271.89-21.44 271.65-21.63L271.65-21.63Q271.55-21.92 271.36-22.12L271.36-22.12Q271.31-22.51 271.41-22.68 271.5-22.85 271.55-22.95L271.55-22.95Q271.5-23.24 271.28-23.39 271.06-23.54 271.06-23.88L271.06-23.88Q271.06-24.07 271.19-24.15 271.31-24.22 271.36-24.37L271.36-24.37 271.5-25.1Q271.89-25.39 272.16-25.81 272.43-26.22 272.87-26.46L272.87-26.46Q273.36-27.2 274.09-27.69L274.09-27.69Q274.34-28.08 274.7-28.32 275.07-28.56 275.31-28.96L275.31-28.96Q275.7-29.2 275.97-29.49 276.24-29.79 276.63-30.03L276.63-30.03Q276.73-30.22 276.85-30.35 276.97-30.47 277.02-30.62L277.02-30.62Q278.34-31.88 279.34-32.81 280.34-33.74 281.42-34.67L281.42-34.67Q281.71-34.91 282-35.21 282.29-35.5 282.64-35.74L282.64-35.74Q282.73-35.84 282.88-35.84 283.03-35.84 283.17-35.94L283.17-35.94Q283.76-35.94 283.81-35.99ZM296.26-6.45L296.6-6.4Q296.65-5.91 296.94-5.76 297.23-5.62 297.62-5.71L297.62-5.71Q297.87-5.18 298.04-5.1 298.21-5.03 298.36-4.93L298.36-4.93 298.94-4.64Q299.28-4.44 299.26-4.25 299.24-4.05 299.43-3.91L299.43-3.91Q299.38-3.56 299.24-3.25 299.09-2.93 299.04-2.54L299.04-2.54Q298.65-2 298.38-1.49 298.11-0.98 297.87-0.44L297.87-0.44Q297.77-0.2 297.65 0.1 297.53 0.39 297.38 0.63L297.38 0.63Q297.28 0.78 297.16 0.95 297.04 1.12 296.94 1.32L296.94 1.32Q296.7 1.71 296.48 2.05 296.26 2.39 296.01 2.78L296.01 2.78Q295.62 2.73 295.6 2.95 295.57 3.17 295.33 3.17L295.33 3.17Q295.13 3.42 294.96 3.59 294.79 3.76 294.6 3.96L294.6 3.96Q294.4 3.86 294.28 3.74 294.16 3.61 294.01 3.52L294.01 3.52Q293.91 2.93 293.77 2.88 293.62 2.83 293.45 2.81 293.28 2.78 293.11 2.69 292.94 2.59 292.74 2.2L292.74 2.2Q292.45 1.42 292.3 1.27L292.3 1.27Q292.16 1.37 292.16 1.59 292.16 1.81 292.06 1.81L292.06 1.81Q291.96 1.56 291.84 1.39 291.72 1.22 291.72 1.07L291.72 1.07 292.06 0.59Q292.11 0.34 292.06 0.05L292.06 0.05Q293.08-1.42 293.94-2.98 294.79-4.54 295.48-6.15L295.48-6.15Q295.72-6.25 295.87-6.35 296.01-6.45 296.26-6.45L296.26-6.45ZM343.32-34.91L343.32-34.91Q343.22-34.72 343.25-34.52 343.27-34.33 343.27-34.08L343.27-34.08Q343.18-33.5 343.27-33.5 343.37-33.5 343.37-33.4L343.37-33.4 343.03-32.91Q343.03-32.62 342.91-32.37 342.78-32.13 342.83-31.79L342.83-31.79Q342.69-31.54 342.57-31.3 342.44-31.05 342.2-30.81L342.2-30.81 341.56-30.81Q341.03-30.81 340.42-30.74 339.81-30.66 339.22-30.66L339.22-30.66Q339.12-30.66 338.98-30.69 338.83-30.71 338.68-30.71L338.68-30.71Q338.59-30.71 338.44-30.69 338.29-30.66 338.1-30.66L338.1-30.66Q337.36-30.66 336.66-30.74 335.95-30.81 335.17-30.81L335.17-30.81Q334.97-30.81 334.78-30.81 334.58-30.81 334.34-30.76L334.34-30.76Q334.29-29.93 334.26-29.08 334.24-28.22 334.24-27.34L334.24-27.34Q334.24-27.1 334.19-26.83 334.14-26.56 334.14-26.32L334.14-26.32Q334.09-25.68 334.07-25.1 334.04-24.51 334.04-23.88L334.04-23.88Q334.04-22.51 334.07-21.14 334.09-19.78 334.14-18.36L334.14-18.36Q334.19-17.63 334.24-16.94 334.29-16.26 334.29-15.53L334.29-15.53Q334.29-13.87 334.24-12.23 334.19-10.6 334.19-8.94L334.19-8.94Q334.19-8.4 334.14-7.93 334.09-7.47 334.09-6.93L334.09-6.93Q334.09-5.81 334.14-4.69 334.19-3.56 334.19-2.44L334.19-2.44Q334.19-1.9 334.17-1.37 334.14-0.83 334.14-0.29L334.14-0.29Q333.9 0.1 333.8 0.39 333.7 0.68 333.21 0.68L333.21 0.68Q332.87 0.59 332.9 0.46 332.92 0.34 332.82 0.24L332.82 0.24Q332.38 0.2 332.16 0.32 331.94 0.44 331.65 0.54L331.65 0.54Q331.51 0.49 331.33 0.49 331.16 0.49 331.02 0.49L331.02 0.49Q330.92 0.49 330.82 0.56 330.72 0.63 330.38 0.63L330.38 0.63Q330.09 0.68 330.04 0.54 329.99 0.39 329.75 0.39L329.75 0.39Q329.5 0.54 329.19 0.61 328.87 0.68 328.58 0.68L328.58 0.68Q328.28 0.49 328.31 0.32 328.33 0.15 328.23-0.05L328.23-0.05Q328.19-0.15 328.06-0.32 327.94-0.49 327.84-0.59L327.84-0.59Q327.94-1.27 327.99-1.81 328.04-2.34 328.04-2.98L328.04-2.98Q328.04-4.25 327.94-5.47 327.84-6.69 327.84-7.96L327.84-7.96Q327.84-8.35 327.94-8.79 328.04-9.23 328.04-9.72L328.04-9.72Q327.94-10.11 327.99-10.18 328.04-10.25 328.04-10.35L328.04-10.35Q328.04-10.64 328.01-10.94 327.99-11.23 327.99-11.52L327.99-11.52Q327.99-12.11 328.01-12.7 328.04-13.28 328.04-13.87L328.04-13.87Q328.04-14.11 328.01-14.38 327.99-14.65 327.99-14.89L327.99-14.89Q327.94-15.33 327.97-15.82 327.99-16.31 327.99-16.8L327.99-16.8Q327.99-19.14 327.92-21.44 327.84-23.73 327.84-26.07L327.84-26.07Q327.84-27.2 327.97-28.37 328.09-29.54 328.09-30.71L328.09-30.71Q328.09-30.86 327.99-31.1 327.89-31.35 327.79-31.45L327.79-31.45Q327.55-31.45 327.33-31.47 327.11-31.49 326.87-31.49L326.87-31.49Q326.33-31.49 325.84-31.35L325.84-31.35Q324.91-31.3 324.06-31.23 323.2-31.15 322.33-31.1L322.33-31.1Q321.74-31.15 321.62-31.13 321.5-31.1 321.35-31.1L321.35-31.1Q320.96-31.1 320.76-31.3L320.76-31.3 320.76-31.93Q320.47-32.52 320.52-32.57 320.57-32.62 320.57-32.71L320.57-32.71Q320.57-32.86 320.3-33.03 320.03-33.2 320.03-33.59L320.03-33.59Q319.98-33.98 319.84-34.18 319.69-34.38 319.69-34.57L319.69-34.57Q319.69-34.91 319.84-35.35L319.84-35.35Q320.28-35.6 320.69-35.69 321.11-35.79 321.64-35.94L321.64-35.94Q321.94-36.04 322.18-36.13 322.42-36.23 322.72-36.28L322.72-36.28Q323.06-36.33 323.4-36.33 323.74-36.33 324.08-36.38L324.08-36.38Q324.82-36.52 325.62-36.62 326.43-36.72 327.16-36.72L327.16-36.72Q327.84-36.72 328.53-36.55 329.21-36.38 329.75-36.38L329.75-36.38Q330.53-36.38 331.24-36.28 331.94-36.18 332.73-36.18L332.73-36.18Q332.82-36.18 333.04-36.11 333.26-36.04 333.56-36.04L333.56-36.04 338.29-36.04Q338.68-35.94 338.85-35.99 339.03-36.04 339.17-36.04L339.17-36.04Q339.56-36.04 339.9-35.99 340.25-35.94 340.64-35.94L340.64-35.94Q340.98-35.94 341.17-35.99L341.17-35.99Q341.56-35.94 341.91-35.77 342.25-35.6 342.69-35.6L342.69-35.6Q342.88-35.45 342.98-35.23 343.08-35.01 343.32-34.91ZM353.57-33.2L353.57-33.2Q353.57-32.76 353.28-32.54 352.99-32.32 352.74-31.98L352.74-31.98Q352.25-31.54 351.89-31.08 351.52-30.62 351.03-30.18L351.03-30.18Q350.84-29.98 350.5-29.66 350.16-29.35 349.79-29.03 349.42-28.71 349.06-28.47 348.69-28.22 348.45-28.22L348.45-28.22Q348.06-28.22 347.45-28.49 346.84-28.76 346.4-28.86L346.4-28.86Q346.05-28.91 345.79-28.93 345.52-28.96 345.27-29.2L345.27-29.2Q344.39-29.39 344.15-29.81 343.91-30.22 343.61-30.66L343.61-30.66Q343.61-30.86 343.76-30.91 343.91-30.96 344-31.1L344-31.1Q344.49-31.74 344.83-32.15 345.17-32.57 345.61-33.01L345.61-33.01Q346.44-33.74 347.2-34.52 347.96-35.3 348.79-35.99L348.79-35.99Q349.18-36.04 349.37-36.28 349.57-36.52 349.96-36.52L349.96-36.52Q350.35-36.52 350.62-36.28 350.89-36.04 351.11-35.72 351.33-35.4 351.55-35.08 351.77-34.77 352.06-34.62L352.06-34.62Q352.4-34.38 352.99-33.98 353.57-33.59 353.57-33.2ZM346.88-24.12L346.88-24.12Q347.23-23.93 347.4-23.61 347.57-23.29 347.91-23.14L347.91-23.14Q348.2-23 348.54-23 348.89-23 349.13-22.9L349.13-22.9Q349.33-22.8 349.42-22.66 349.52-22.51 349.62-22.36L349.62-22.36Q349.91-22.12 350.52-21.92 351.13-21.73 351.33-21.48L351.33-21.48Q351.67-21.04 351.84-20.36 352.01-19.68 352.11-18.92 352.21-18.16 352.25-17.41 352.3-16.65 352.4-16.11L352.4-16.11Q352.5-14.99 352.65-13.89 352.79-12.79 352.79-11.67L352.79-11.67Q352.79-10.55 352.69-9.38 352.6-8.2 352.6-7.08L352.6-7.08Q352.6-6.49 352.57-5.62 352.55-4.74 352.16-4.25L352.16-4.25Q352.11-4.05 352.11-3.56L352.11-3.56 352.11-2Q352.11-1.71 352.16-1.42 352.21-1.12 352.21-0.78L352.21-0.78Q352.21-0.24 351.91 0L351.91 0Q351.77-0.05 351.6-0.05 351.42-0.05 351.28-0.05L351.28-0.05Q350.74-0.05 350.5 0.15L350.5 0.15Q349.96 0.1 349.47 0.05 348.98 0 348.45 0L348.45 0Q347.62 0 346.64 0.24L346.64 0.24Q346.44-0.24 346.47-0.78 346.49-1.32 346.25-1.76L346.25-1.76Q346.2-1.9 346.18-2.03 346.15-2.15 346.15-2.29L346.15-2.29Q346.3-2.88 346.3-3.1 346.3-3.32 346.3-3.56L346.3-3.56Q346.3-4.25 346.25-4.96 346.2-5.66 346.3-6.35L346.3-6.35Q346.3-6.59 346.37-6.79 346.44-6.98 346.44-7.23L346.44-7.23Q346.44-7.47 346.35-7.57 346.25-7.67 346.25-7.81L346.25-7.81Q346.25-7.96 346.27-8.3 346.3-8.64 346.4-8.74L346.4-8.74Q346.4-9.13 346.42-9.5 346.44-9.86 346.44-10.21L346.44-10.21Q346.44-10.99 346.4-11.77 346.35-12.55 346.35-13.28L346.35-13.28Q346.35-13.62 346.3-13.72 346.25-13.82 346.2-13.87 346.15-13.92 346.05-13.94 345.96-13.96 345.91-14.11L345.91-14.11Q346.1-16.26 345.76-18.41 345.42-20.56 345.42-22.75L345.42-22.75Q345.42-23.1 345.52-23.27 345.61-23.44 345.76-23.54 345.91-23.63 346.03-23.75 346.15-23.88 346.2-24.12L346.2-24.12Q346.59-24.02 346.88-24.12ZM362.51-35.5L362.51-35.5Q362.7-35.55 362.85-35.64 362.99-35.74 363.19-35.74L363.19-35.74Q363.34-35.69 363.41-35.55 363.48-35.4 363.63-35.3L363.63-35.3Q363.78-35.4 363.9-35.5 364.02-35.6 364.17-35.64L364.17-35.64Q364.65-35.5 364.7-35.16L364.7-35.16Q364.95-35.06 365.14-34.94 365.34-34.81 365.58-34.77L365.58-34.77Q365.68-34.57 365.83-34.47 365.97-34.38 366.17-34.18L366.17-34.18Q366.66-34.08 367.46-33.64 368.27-33.2 368.76-32.96L368.76-32.96Q369.24-32.71 369.73-32.47 370.22-32.23 370.66-31.93L370.66-31.93Q371.1-31.69 371.54-31.37 371.98-31.05 372.47-30.86L372.47-30.86Q372.91-30.32 373.59-30.18 374.27-30.03 374.81-29.64L374.81-29.64Q375.25-29.39 375.64-29.13 376.03-28.86 376.42-28.61L376.42-28.61Q376.57-28.37 376.79-28.22 377.01-28.08 377.2-27.83L377.2-27.83Q378.18-27.29 378.33-27L378.33-27Q378.47-26.9 378.77-26.71 379.06-26.51 379.35-26.29 379.65-26.07 379.89-25.85 380.13-25.63 380.18-25.44L380.18-25.44Q379.99-25 379.99-24.73 379.99-24.46 379.79-24.27L379.79-24.27Q380.08-23.88 380.08-23.54L380.08-23.54Q379.84-22.95 379.25-22.56L379.25-22.56Q379.11-22.17 378.79-21.95 378.47-21.73 378.38-21.34L378.38-21.34Q377.98-21.09 377.91-20.95 377.84-20.8 377.74-20.65L377.74-20.65Q376.81-19.68 376.01-18.97 375.2-18.26 374.52-17.43L374.52-17.43Q374.03-17.19 373.69-16.82 373.35-16.46 373.05-16.02L373.05-16.02Q372.66-15.63 372.3-15.26 371.93-14.89 371.54-14.55L371.54-14.55Q371.44-14.36 371.22-14.23 371-14.11 370.9-13.87L370.9-13.87Q370.37-13.62 370.03-13.18 369.68-12.74 369.2-12.45L369.2-12.45 368.85-11.96Q368.71-11.87 368.44-11.65 368.17-11.43 367.9-11.16 367.63-10.89 367.44-10.64 367.24-10.4 367.19-10.25L367.19-10.25Q367.05-10.21 366.73-9.96 366.41-9.72 366.1-9.42 365.78-9.13 365.51-8.84 365.24-8.54 365.19-8.45L365.19-8.45 364.7-8.11Q364.75-6.79 364.78-5.44 364.8-4.1 364.8-2.78L364.8-2.78 364.8-1.12 364.46-0.68Q364.22-0.68 364.07-0.78 363.92-0.88 363.73-0.88L363.73-0.88Q363.53-0.88 363.36-0.68 363.19-0.49 363.04-0.39L363.04-0.39Q362.7-0.34 362.48-0.22 362.26-0.1 362.02 0L362.02 0Q361.73-0.15 361.43-0.15L361.43-0.15Q360.8 0 360.82-0.1 360.85-0.2 360.6-0.2L360.6-0.2Q360.21 0.2 360.11 0.2L360.11 0.2Q359.92 0.2 359.75 0.24 359.58 0.29 359.38 0.29L359.38 0.29Q359.19-0.1 359.06-0.51 358.94-0.93 358.6-1.32L358.6-1.32Q358.75-1.81 358.55-2L358.55-2Q358.84-2.54 358.8-3.22 358.75-3.91 358.75-4.49L358.75-4.49Q358.75-4.83 358.77-5.15 358.8-5.47 358.8-5.76L358.8-5.76Q358.8-6.35 358.7-6.96 358.6-7.57 358.6-8.2L358.6-8.2Q358.6-9.67 358.7-11.16 358.8-12.65 358.8-14.11L358.8-14.11Q358.8-14.94 358.72-15.82 358.65-16.7 358.65-17.53L358.65-17.53Q358.65-18.07 358.7-18.53 358.75-18.99 358.8-19.43L358.8-19.43Q358.8-21.68 358.87-23.75 358.94-25.83 358.94-27.88L358.94-27.88Q358.94-28.56 358.92-29.17 358.89-29.79 358.89-30.47L358.89-30.47Q358.89-30.81 358.94-31.15 358.99-31.49 358.99-31.84L358.99-31.84Q359.14-33.35 359.14-34.86L359.14-34.86 359.09-35.64Q359.28-35.94 359.67-35.94L359.67-35.94Q360.21-35.94 360.5-35.6L360.5-35.6Q360.85-35.64 361.16-35.72 361.48-35.79 361.77-35.79L361.77-35.79Q362.21-35.79 362.51-35.5ZM365.48-27.88L365.39-27.73Q365.39-27.49 365.34-27.37 365.29-27.25 365.24-27.15L365.24-27.15Q365.24-27 365.27-26.83 365.29-26.66 365.29-26.46L365.29-26.46Q365.29-25.34 365.27-24.24 365.24-23.14 365.24-22.07L365.24-22.07 365.14-19.48Q365.14-19.24 365.19-18.95 365.24-18.65 365.24-18.41L365.24-18.41Q365.24-18.16 365.19-17.92 365.14-17.68 365.14-17.43L365.14-17.43Q365.14-16.8 365.29-16.16L365.29-16.16Q365.53-16.26 365.63-16.48 365.73-16.7 365.88-16.85L365.88-16.85Q367-17.87 367.98-18.99 368.95-20.12 369.98-21.24L369.98-21.24Q370.86-22.17 371.49-22.75 372.13-23.34 372.47-24.17L372.47-24.17Q371.64-24.71 370.76-25.27 369.88-25.83 368.9-26.22L368.9-26.22Q368.85-26.32 368.63-26.46 368.41-26.61 368.17-26.73 367.93-26.86 367.68-26.95 367.44-27.05 367.34-27.05L367.34-27.05Q366.9-27.44 366.41-27.54L366.41-27.54Q366.07-27.54 365.83-27.66 365.58-27.78 365.48-27.88L365.48-27.88ZM392.19-35.99L392.19-35.99Q392.29-35.79 392.41-35.72 392.53-35.64 392.58-35.4L392.58-35.4Q392.92-35.16 393.12-35.03 393.31-34.91 393.36-34.62L393.36-34.62Q393.8-34.28 393.88-34.18 393.95-34.08 394-33.94L394-33.94Q394.24-33.74 394.46-33.59 394.68-33.45 394.78-33.15L394.78-33.15Q395.17-32.81 395.27-32.62 395.37-32.42 395.41-32.18L395.41-32.18Q395.22-31.84 394.63-31.25 394.05-30.66 393.31-30 392.58-29.35 391.9-28.74 391.21-28.13 390.82-27.78L390.82-27.78Q390.73-27.59 390.58-27.44 390.43-27.29 390.34-27.1L390.34-27.1Q390.04-26.86 389.8-26.59 389.55-26.32 389.21-26.17L389.21-26.17Q388.72-25.49 387.85-24.83 386.97-24.17 386.67-23.54L386.67-23.54Q386.72-23.39 386.89-23.24 387.06-23.1 387.16-23L387.16-23Q387.55-22.61 388.09-22.29 388.63-21.97 389.02-21.58L389.02-21.58Q389.41-21.24 389.8-20.92 390.19-20.61 390.58-20.26L390.58-20.26Q390.78-20.07 391.07-19.68L391.07-19.68Q391.56-19.29 392.02-18.97 392.48-18.65 392.92-18.26L392.92-18.26Q393.85-17.48 394.73-16.67 395.61-15.87 396.59-15.09L396.59-15.09 396.98-14.65Q396.98-14.26 397.2-13.75 397.42-13.23 397.61-12.89L397.61-12.89Q397.51-12.4 397.64-12.28 397.76-12.16 397.86-12.06L397.86-12.06Q397.81-11.13 397.9-10.84L397.9-10.84Q397.07-10.11 396.37-9.5 395.66-8.89 395.12-8.3L395.12-8.3Q394.68-7.76 394.22-7.35 393.75-6.93 393.22-6.45L393.22-6.45Q392.92-6.05 392.73-5.91L392.73-5.91Q392.39-5.57 392.04-5.37L392.04-5.37Q391.46-4.83 390.9-4.35 390.34-3.86 389.8-3.37L389.8-3.37Q389.41-3.03 389.07-2.71 388.72-2.39 388.38-2L388.38-2Q388.09-1.71 387.72-1.32 387.36-0.93 386.97-0.68L386.97-0.68Q386.82-0.39 386.58-0.17 386.33 0.05 386.14 0.29L386.14 0.29Q385.79 0.49 385.5 0.68 385.21 0.88 384.82 1.07L384.82 1.07Q384.43 0.78 384.06 0.54 383.7 0.29 383.26 0.2L383.26 0.2Q382.96-0.05 382.82-0.29 382.67-0.54 382.28-0.63L382.28-0.63Q382.18-0.78 382.06-0.95 381.94-1.12 381.84-1.32L381.84-1.32Q381.25-1.37 380.91-2.05L380.91-2.05Q381.01-2.34 381.18-2.49 381.35-2.64 381.25-3.03L381.25-3.03Q381.55-3.52 381.96-3.88 382.38-4.25 382.77-4.64L382.77-4.64Q383.21-5.03 383.57-5.44 383.94-5.86 384.38-6.25L384.38-6.25Q384.62-6.49 384.87-6.71 385.11-6.93 385.4-7.18L385.4-7.18Q385.94-7.71 386.5-8.18 387.06-8.64 387.65-9.18L387.65-9.18Q388.43-9.96 389.26-10.67 390.09-11.38 390.78-12.26L390.78-12.26Q390.73-12.45 390.63-12.52 390.53-12.6 390.48-12.74L390.48-12.74Q389.7-13.48 388.94-14.18 388.19-14.89 387.31-15.43L387.31-15.43Q387.02-15.72 386.92-15.92L386.92-15.92Q386.04-16.55 385.23-17.33 384.43-18.12 383.45-18.65L383.45-18.65Q383.26-18.9 382.99-19.07 382.72-19.24 382.47-19.38L382.47-19.38Q382.33-19.63 382.16-19.8 381.99-19.97 381.74-20.07L381.74-20.07Q381.35-20.41 381.23-20.63 381.11-20.85 380.81-20.9L380.81-20.9Q380.72-21.14 380.5-21.29 380.28-21.44 380.03-21.63L380.03-21.63Q379.94-21.92 379.74-22.12L379.74-22.12Q379.69-22.51 379.79-22.68 379.89-22.85 379.94-22.95L379.94-22.95Q379.89-23.24 379.67-23.39 379.45-23.54 379.45-23.88L379.45-23.88Q379.45-24.07 379.57-24.15 379.69-24.22 379.74-24.37L379.74-24.37 379.89-25.1Q380.28-25.39 380.55-25.81 380.81-26.22 381.25-26.46L381.25-26.46Q381.74-27.2 382.47-27.69L382.47-27.69Q382.72-28.08 383.08-28.32 383.45-28.56 383.7-28.96L383.7-28.96Q384.09-29.2 384.35-29.49 384.62-29.79 385.01-30.03L385.01-30.03Q385.11-30.22 385.23-30.35 385.36-30.47 385.4-30.62L385.4-30.62Q386.72-31.88 387.72-32.81 388.72-33.74 389.8-34.67L389.8-34.67Q390.09-34.91 390.38-35.21 390.68-35.5 391.02-35.74L391.02-35.74Q391.12-35.84 391.26-35.84 391.41-35.84 391.56-35.94L391.56-35.94Q392.14-35.94 392.19-35.99Z" opacity="1" transform="matrix(1,0,0,1,0,0)" fill="#000000" class="slogan-text-1" data-fill-palette-color="secondary" id="text-1"></path></svg></g></svg></g></svg></g></svg></g><g></g></svg></g></svg></g></svg></g></svg></g><defs></defs></svg><rect width="320" height="360" fill="none" stroke="none" visibility="hidden"></rect></g></svg></g></svg>