<?xml version="1.0" standalone="no"?>
<!DOCTYPE svg PUBLIC "-//W3C//DTD SVG 20010904//EN"
 "http://www.w3.org/TR/2001/REC-SVG-20010904/DTD/svg10.dtd">
<svg version="1.0" xmlns="http://www.w3.org/2000/svg"
 width="1125.000000pt" height="1125.000000pt" viewBox="0 0 1125.000000 1125.000000"
 preserveAspectRatio="xMidYMid meet">
<metadata>
Created by potrace 1.14, written by Peter Selinger 2001-2017
</metadata>
<g transform="translate(0.000000,1125.000000) scale(0.100000,-0.100000)"
fill="#000000" stroke="none">
<path d="M5287 10474 c-1 -1 -64 -5 -139 -9 -75 -3 -147 -8 -160 -10 -13 -2
-54 -6 -93 -10 -38 -3 -77 -8 -85 -10 -8 -2 -37 -6 -65 -10 -27 -3 -75 -10
-105 -15 -30 -5 -68 -12 -85 -14 -305 -51 -739 -179 -1035 -306 -319 -136
-662 -325 -668 -368 -2 -16 -39 -46 -125 -104 -207 -138 -385 -274 -557 -427
-109 -96 -357 -344 -442 -441 -172 -198 -369 -474 -486 -680 -11 -19 -39 -69
-63 -110 -62 -108 -189 -376 -244 -514 -50 -127 -124 -336 -131 -374 -3 -13
-11 -43 -19 -65 -18 -50 -19 -77 -4 -77 7 0 9 -9 5 -22 -9 -32 -54 -236 -61
-278 -3 -19 -10 -51 -15 -70 -5 -19 -11 -53 -14 -75 -3 -22 -7 -51 -10 -65 -7
-37 -25 -168 -31 -225 -3 -27 -8 -66 -10 -85 -30 -225 -27 -738 5 -975 18
-137 20 -147 41 -255 61 -311 153 -598 271 -845 l19 -40 -6 40 c-10 72 -10 78
1 82 6 2 21 -22 34 -54 33 -86 33 -86 110 -253 157 -339 200 -418 251 -471 28
-28 52 -49 55 -46 3 3 -20 58 -50 122 -31 64 -68 144 -82 178 -14 34 -31 76
-38 92 -75 169 -183 496 -236 712 -27 112 -35 144 -46 203 -2 14 -6 34 -9 46
-3 12 -7 39 -10 60 -4 21 -8 46 -10 54 -8 30 -30 231 -39 355 -7 96 10 54 34
-87 18 -101 46 -185 58 -173 6 5 4 266 -3 415 -6 136 -7 552 -1 590 3 19 8 55
10 80 8 72 15 110 36 185 l19 70 -5 -55 c-3 -30 -7 -68 -10 -85 -17 -126 -23
-426 -11 -646 12 -219 71 -567 124 -731 24 -74 27 -80 33 -53 3 17 8 26 11 20
7 -11 6 -23 -6 -67 -7 -29 3 -36 22 -17 9 9 15 3 26 -22 190 -441 240 -557
273 -624 124 -258 280 -484 489 -711 48 -51 100 -115 117 -140 16 -26 36 -53
44 -61 45 -46 65 -83 63 -120 -2 -41 3 -52 96 -202 56 -91 179 -261 233 -323
95 -109 238 -254 341 -344 25 -21 61 -57 80 -78 256 -280 682 -561 1160 -765
143 -62 411 -160 510 -188 243 -67 441 -109 606 -128 28 -3 61 -8 75 -10 14
-3 50 -7 80 -10 30 -3 66 -7 80 -10 14 -2 50 -7 80 -11 30 -3 58 -8 61 -10 22
-13 195 -30 294 -28 90 1 250 11 296 19 24 3 78 11 159 21 37 5 378 64 445 77
11 3 38 8 60 12 507 101 1116 362 1605 689 58 39 110 74 115 78 6 4 71 54 146
111 75 58 152 118 170 134 19 17 59 52 89 78 148 128 385 373 522 540 237 288
404 546 574 885 215 429 344 820 439 1325 3 17 10 64 16 105 5 41 12 86 14
100 3 14 7 56 10 95 4 38 8 75 10 82 19 58 27 642 13 838 -11 148 -21 249 -33
325 -2 14 -7 50 -11 80 -4 30 -8 57 -9 60 -1 3 -5 28 -10 55 -48 303 -165 705
-291 1005 -31 74 -63 152 -71 172 -10 24 -23 38 -37 40 -16 2 -40 39 -101 158
-119 231 -174 323 -308 525 -53 80 -213 302 -227 315 -3 3 -25 30 -50 60 -25
30 -49 60 -55 66 -5 6 -37 42 -70 79 -81 93 -274 285 -383 381 -367 326 -799
597 -1249 784 -52 22 -97 40 -99 40 -2 0 -1 -7 2 -15 4 -10 0 -15 -13 -15 -11
0 -23 3 -26 7 -17 16 -332 120 -524 173 -157 42 -221 57 -388 90 -130 26 -145
29 -196 35 -145 19 -358 47 -380 50 -14 3 -52 7 -85 10 -32 3 -75 8 -94 10
-104 13 -603 28 -613 19z m616 -1149 c4 -8 3 -17 -2 -19 -12 -8 -81 13 -81 24
0 17 77 12 83 -5z m-219 -2 c-16 -3 -20 -10 -16 -28 4 -23 5 -23 28 -8 28 18
96 14 191 -12 77 -21 111 -14 125 25 5 17 16 30 23 30 8 0 40 -15 72 -34 69
-41 141 -64 151 -50 4 6 15 13 24 17 11 4 15 12 12 22 -5 13 -2 15 21 9 15 -4
35 -7 45 -8 9 -1 24 -9 34 -18 22 -23 33 -23 45 0 13 25 81 18 88 -9 3 -11 8
-19 12 -19 3 -1 20 -12 36 -26 l30 -26 -30 7 c-16 4 -41 10 -55 13 -43 10
-109 7 -122 -6 -15 -15 -10 -19 32 -26 145 -23 651 -177 795 -241 17 -7 64
-28 105 -46 179 -77 482 -243 503 -276 4 -7 13 -13 20 -13 29 0 131 -81 171
-137 44 -60 58 -71 106 -79 14 -3 32 -15 40 -27 43 -63 161 -200 289 -336 27
-29 117 -151 145 -196 11 -16 25 -37 33 -45 23 -25 77 -114 75 -124 -2 -4 2
-14 8 -21 8 -9 7 -14 -2 -17 -8 -3 -3 -14 16 -34 15 -16 39 -51 52 -79 27 -57
33 -91 10 -59 -14 18 -15 18 -21 2 -12 -31 2 -48 38 -46 52 2 80 -24 37 -35
-21 -5 -25 -35 -11 -72 7 -18 10 -17 25 13 17 32 18 33 36 17 17 -16 18 -20 5
-38 -20 -28 -19 -43 0 -27 26 22 60 -4 61 -45 0 -19 -3 -32 -8 -29 -12 8 -10
-2 10 -38 10 -18 18 -39 17 -45 -2 -7 -3 -22 -4 -34 -1 -13 -5 -18 -13 -13 -8
5 -9 2 -4 -12 5 -10 19 -59 32 -109 31 -114 63 -165 101 -165 15 0 15 -2 -4
-15 -26 -18 -24 -57 5 -105 12 -19 22 -40 22 -47 0 -6 12 -21 26 -32 l26 -20
-22 -70 -21 -69 27 -54 c14 -29 35 -62 45 -74 18 -19 18 -25 5 -92 l-14 -72
22 6 c26 6 78 -31 60 -43 -6 -5 -15 -27 -21 -51 -9 -33 -8 -55 5 -100 18 -66
21 -336 7 -567 -9 -149 -9 -236 1 -298 5 -33 3 -38 -11 -35 -12 2 -25 -10 -40
-39 -19 -36 -21 -44 -9 -54 9 -7 14 -32 14 -71 0 -50 -4 -65 -29 -96 -31 -39
-37 -59 -46 -162 -9 -87 -35 -141 -84 -168 -38 -21 -39 -24 -43 -84 -3 -53
-14 -83 -65 -183 -40 -79 -66 -119 -76 -117 -17 3 -47 -69 -47 -112 0 -24 -2
-27 -15 -16 -18 15 -16 17 -39 -35 -9 -22 -40 -65 -67 -94 -80 -86 -117 -140
-141 -203 -19 -54 -63 -112 -200 -262 -10 -11 -24 -32 -30 -48 -13 -29 -24
-35 -30 -18 -5 17 -47 -1 -54 -24 -3 -11 -17 -36 -31 -53 -13 -18 -32 -52 -43
-75 -16 -37 -23 -42 -52 -42 -32 -1 -33 -2 -31 -40 3 -48 5 -49 42 -41 53 12
105 60 173 163 66 97 113 145 139 140 7 -2 23 17 35 42 24 51 51 61 46 18 -5
-42 19 -35 55 16 18 25 44 53 60 63 15 10 34 24 42 31 11 11 17 7 36 -19 25
-33 23 -59 -3 -59 -33 0 -83 -47 -123 -118 -41 -71 -79 -109 -115 -115 -33 -5
-44 -17 -44 -48 0 -22 -5 -29 -20 -29 -29 0 -108 -86 -116 -125 -8 -42 -35
-57 -116 -64 -13 -1 -9 -29 5 -34 6 -3 -1 -6 -16 -6 -50 -2 -98 -30 -163 -96
-60 -62 -64 -64 -76 -46 -12 19 -13 19 -30 -9 -18 -30 -50 -53 -148 -108 -44
-25 -51 -32 -37 -38 31 -12 92 14 193 81 53 36 103 66 110 66 8 1 19 2 24 3 6
0 41 29 78 63 74 69 105 94 202 158 36 24 92 65 124 92 65 53 123 121 94 110
-21 -7 -36 12 -18 23 13 8 20 8 70 -4 21 -5 30 1 53 32 16 20 108 133 205 250
97 117 214 267 259 334 46 67 83 119 83 116 0 -23 -68 -149 -94 -173 -49 -46
-86 -98 -172 -244 -81 -137 -167 -234 -219 -247 -18 -4 -25 -13 -25 -29 0 -38
-19 -77 -59 -125 -21 -25 -53 -71 -71 -103 -31 -55 -34 -57 -69 -55 -35 3 -36
2 -39 -34 -4 -48 -37 -80 -132 -129 -96 -49 -119 -68 -128 -104 -6 -20 -22
-37 -53 -55 -25 -14 -56 -33 -70 -43 -105 -78 -163 -115 -229 -144 -41 -19
-95 -43 -119 -54 -24 -11 -64 -28 -90 -39 -25 -10 -82 -35 -126 -55 -44 -20
-84 -38 -90 -39 -5 -2 -27 -6 -49 -11 -24 -5 -40 -14 -43 -25 -7 -27 -100 -83
-126 -76 -45 12 -284 -48 -386 -98 -35 -17 -63 -22 -105 -21 -68 2 -145 -9
-248 -35 -65 -17 -51 -34 21 -27 31 3 49 3 41 0 -8 -3 -23 -12 -32 -21 -11 -9
-24 -12 -35 -7 -10 5 -23 9 -29 9 -7 1 -20 11 -30 23 -24 29 -84 43 -84 20 0
-8 -3 -22 -6 -30 -4 -13 1 -14 28 -8 40 9 59 4 52 -14 -13 -33 -167 -53 -229
-29 -20 8 -37 9 -55 2 -14 -6 -41 -11 -60 -13 -19 -1 -63 -5 -96 -9 -57 -7
-62 -6 -67 14 -5 18 -9 20 -26 11 -11 -6 -35 -9 -53 -5 -35 6 -118 7 -124 1
-2 -2 29 -14 69 -27 85 -27 96 -35 70 -49 -15 -8 -30 -5 -63 11 -38 19 -63 22
-204 24 -89 1 -172 5 -186 8 -14 4 -41 8 -60 11 -43 5 -100 14 -120 20 -8 2
-28 6 -45 9 -16 3 -86 15 -155 27 -69 11 -151 21 -182 22 -52 0 -58 2 -58 21
0 14 -12 28 -35 40 -19 11 -35 23 -35 28 0 5 -11 1 -24 -7 -16 -11 -36 -14
-62 -10 -22 4 -46 7 -55 9 -9 1 -29 16 -43 33 -22 27 -69 51 -111 59 -123 22
-196 62 -216 117 -11 30 -17 35 -71 46 -64 13 -99 31 -198 102 -36 25 -73 49
-84 53 -14 5 -16 9 -7 19 8 10 -4 21 -54 46 -55 28 -63 36 -55 51 8 15 5 19
-15 24 -13 3 -48 32 -77 63 -116 126 -165 170 -218 195 -38 18 -74 47 -115 94
-99 113 -163 174 -182 174 -17 1 -17 1 0 11 19 11 24 59 6 59 -7 0 -37 21 -68
46 -31 26 -66 50 -79 55 -20 8 -23 15 -20 47 l3 37 -40 0 -40 0 2 -38 c5 -64
31 -101 128 -182 81 -68 88 -75 115 -115 l24 -35 -27 24 c-21 19 -30 22 -39
13 -10 -10 -8 -20 6 -47 26 -48 54 -72 66 -57 6 7 7 10 4 7 -12 -8 -33 16 -28
30 4 10 14 8 41 -11 20 -13 40 -24 44 -24 5 0 13 -10 20 -21 10 -20 9 -21 -25
-17 -46 5 -46 -9 -1 -45 19 -15 49 -56 66 -90 17 -34 28 -59 23 -54 -4 4 -15
0 -25 -9 -26 -24 -49 -13 -64 29 -16 47 -35 68 -103 119 -50 37 -68 64 -89
133 -6 22 -16 31 -38 35 -17 3 -31 11 -31 18 -1 6 -2 19 -3 27 0 9 -24 38 -51
66 -36 36 -56 50 -70 46 -24 -6 -52 47 -45 86 6 29 -13 47 -26 26 -10 -16 -12
-9 -9 41 1 37 -49 125 -104 182 -25 26 -25 27 -7 40 19 13 18 14 -7 38 -14 14
-45 66 -68 115 -32 68 -44 86 -49 72 -14 -34 3 -97 54 -203 28 -58 51 -115 51
-126 0 -11 22 -50 49 -87 44 -60 74 -108 76 -121 0 -3 7 -16 15 -30 46 -82 56
-110 52 -144 -2 -20 -8 -36 -12 -36 -20 0 -252 220 -291 277 -26 37 -28 46
-18 65 12 22 12 22 40 -10 27 -31 86 -72 101 -72 10 0 -12 50 -31 73 -9 11
-25 17 -44 15 -29 -3 -30 -2 -32 47 -3 66 -2 65 -23 65 -10 0 -26 10 -36 22
-18 21 -19 21 -32 3 -13 -17 -14 -16 -24 10 -6 15 -19 39 -29 54 -10 14 -37
87 -61 161 -108 349 -144 451 -179 522 -22 42 -37 79 -34 82 6 6 5 180 -1 211
-2 11 -7 40 -11 65 -3 25 -15 74 -25 110 -13 46 -17 77 -11 105 13 68 -1 289
-19 300 -16 10 -24 -19 -25 -82 0 -35 -6 -68 -13 -75 -9 -9 -12 -9 -13 3 0 7
-2 25 -4 39 -12 77 -4 329 11 405 3 15 14 224 14 277 0 5 3 7 8 7 21 -4 27 4
28 39 0 20 5 63 11 94 8 46 7 56 -2 48 -17 -14 -82 -166 -90 -211 -5 -25 -14
-40 -30 -47 -18 -8 -23 -17 -20 -34 7 -36 7 -228 0 -273 -9 -55 -24 -80 -38
-66 -20 20 -25 12 -37 -56 -6 -38 -14 -77 -17 -88 -5 -18 -7 -18 -15 5 -6 14
-16 66 -23 115 -16 114 -12 738 5 743 6 2 20 21 30 43 11 21 22 39 24 39 2 0
2 -35 -1 -77 -5 -78 9 -145 26 -127 5 5 12 45 16 89 4 44 8 82 10 85 2 3 6 30
10 60 8 71 12 98 30 195 8 44 17 94 20 112 13 79 98 400 136 513 82 245 237
587 330 728 16 24 29 45 29 48 0 23 232 336 329 444 l32 35 -3 -72 c-2 -40 -3
-73 -1 -73 7 0 168 194 261 316 114 148 301 334 336 334 17 0 1 -27 -44 -72
-27 -28 -50 -52 -50 -55 0 -2 19 9 43 26 27 20 68 36 117 46 41 9 79 20 84 25
6 6 8 10 5 11 -35 6 -54 10 -58 15 -11 11 124 119 168 134 25 8 71 34 102 58
61 46 89 56 46 17 -15 -14 -34 -39 -42 -56 l-16 -30 28 7 c15 4 40 13 55 21
24 11 27 18 21 44 l-6 30 56 -5 c51 -5 58 -3 68 17 7 12 17 25 23 29 6 4 11
17 11 30 0 18 6 24 30 26 17 2 53 14 80 27 122 57 489 193 540 200 17 2 59 6
95 10 97 8 131 16 172 36 38 19 66 48 35 36 -10 -3 -17 -2 -17 3 0 12 30 13
49 1 8 -5 10 -14 6 -22 -5 -8 -5 -11 0 -7 4 4 15 2 23 -4 11 -10 17 -9 27 6
14 18 26 21 135 31 182 15 186 16 181 48 -1 8 27 11 79 8 79 -5 85 -7 82 -29
-3 -18 1 -21 30 -18 49 6 68 16 68 36 0 20 13 24 75 26 22 1 31 -1 19 -3z
m549 -45 c20 -11 20 -12 3 -16 -19 -4 -102 24 -111 37 -6 11 80 -6 108 -21z
m-2395 -393 c-9 -20 -16 -23 -37 -18 -38 9 -38 11 0 27 47 21 50 20 37 -9z
m-1005 -5933 c32 -53 99 -132 110 -132 3 0 3 8 0 19 -3 11 2 21 11 24 19 7 21
-20 7 -71 -9 -31 -7 -35 75 -117 46 -47 84 -88 84 -90 0 -15 -228 152 -289
212 -95 92 -82 114 19 31 49 -40 57 -35 18 11 -18 21 -42 69 -54 105 -11 36
-20 66 -19 66 1 0 18 -26 38 -58z m613 -714 c200 -176 273 -223 589 -381 146
-73 176 -87 395 -189 94 -43 105 -51 102 -72 -3 -29 20 -39 66 -31 29 5 50
-14 38 -34 -11 -17 -123 3 -191 34 -84 38 -114 47 -153 50 -26 1 -59 16 -101
44 -34 23 -139 79 -234 125 -97 47 -185 96 -203 113 -16 17 -48 40 -70 51 -21
11 -82 52 -134 91 -52 39 -105 74 -118 77 -13 4 -21 12 -18 19 2 7 -1 21 -8
30 -10 14 -17 15 -34 6 -35 -19 -49 -13 -56 23 -5 25 -22 48 -57 80 -50 45
-56 56 -19 36 10 -5 35 -12 54 -16 32 -5 36 -3 36 15 0 12 2 21 5 21 3 0 53
-42 111 -92z"/>
<path d="M8929 7109 c14 -20 27 -36 29 -34 9 8 -28 72 -41 72 -11 0 -8 -10 12
-38z"/>
<path d="M5899 6905 c0 -8 0 -53 0 -100 0 -47 0 -91 0 -98 1 -9 39 -12 159
-12 l157 0 2 113 3 112 -160 0 c-135 0 -160 -2 -161 -15z"/>
<path d="M7217 6913 c-3 -7 -2 -183 2 -208 1 -8 280 -13 311 -6 5 1 5 186 1
214 0 4 -70 7 -155 7 -85 0 -157 -3 -159 -7z"/>
<path d="M3210 6694 l0 -145 -45 5 -45 4 0 -124 0 -124 45 0 44 0 3 -467 c3
-438 4 -470 22 -503 25 -46 51 -68 95 -80 77 -21 280 -5 282 23 3 40 4 184 1
195 -2 6 -19 12 -38 12 -22 0 -37 6 -43 18 -5 9 -9 189 -9 409 l0 392 46 3 47
3 -1 120 0 120 -44 0 -45 0 -2 120 c0 66 -2 130 -2 142 -1 21 -4 22 -156 22
l-155 0 0 -145z"/>
<path d="M7719 6832 c-1 -4 -2 -68 -3 -142 l-1 -135 -35 0 c-19 0 -39 -3 -45
-7 -6 -3 -10 -54 -10 -120 l1 -113 44 -5 45 -5 1 -456 0 -456 25 -49 c18 -37
35 -54 68 -71 40 -20 56 -22 150 -19 58 2 115 6 126 9 11 3 23 6 28 6 4 1 7
50 7 110 l0 110 -42 3 -43 3 -3 408 -2 407 45 0 45 0 0 120 c0 89 -3 120 -12
121 -7 1 -28 1 -45 1 l-33 1 0 142 0 143 -155 1 c-85 0 -155 -3 -156 -7z"/>
<path d="M3980 6604 c-107 -32 -184 -95 -230 -184 -42 -82 -47 -144 -45 -510
2 -190 5 -354 8 -365 3 -11 8 -33 12 -50 12 -47 61 -129 97 -160 83 -70 225
-100 372 -80 151 21 243 96 288 234 19 61 21 91 24 391 1 179 -2 359 -7 400
-18 146 -101 260 -226 310 -70 28 -222 35 -293 14z m176 -255 c18 -20 19 -44
22 -406 3 -340 1 -388 -13 -410 -33 -50 -103 -46 -125 6 -8 20 -10 139 -8 408
3 358 4 382 22 402 25 28 77 28 102 0z"/>
<path d="M6595 6606 c-123 -32 -199 -86 -242 -174 -25 -50 -28 -68 -28 -147 1
-167 36 -229 205 -363 227 -179 250 -207 251 -308 1 -74 -23 -110 -71 -107
-56 4 -65 21 -68 142 l-4 108 -159 2 c-181 2 -161 14 -162 -99 -2 -267 123
-402 378 -409 273 -7 428 140 419 399 -3 102 -9 125 -43 195 -42 83 -104 145
-263 263 -76 56 -144 114 -151 129 -20 38 -15 103 8 120 11 7 31 13 47 13 39
0 62 -39 64 -109 l2 -56 163 0 164 0 -1 70 c-2 122 -53 227 -135 282 -82 54
-261 78 -374 49z"/>
<path d="M5013 6598 c-2 -5 -2 -11 0 -15 3 -5 7 -30 11 -58 3 -27 8 -61 11
-75 2 -13 7 -42 10 -65 3 -22 14 -92 25 -155 17 -104 56 -348 65 -410 2 -14
11 -68 20 -120 9 -52 18 -106 20 -120 8 -59 18 -116 21 -135 3 -11 7 -40 10
-65 3 -25 9 -61 13 -80 l7 -35 182 -2 c106 -1 184 2 187 7 3 6 8 29 11 52 3
24 7 50 9 58 3 8 7 33 10 55 3 22 7 49 10 60 2 11 16 94 30 185 14 91 28 176
31 190 2 14 7 41 10 60 8 55 13 83 18 110 3 14 7 41 10 60 9 62 17 114 22 140
2 14 7 43 10 65 4 22 16 99 28 170 l22 130 -160 0 -161 -1 -7 -54 c-4 -30 -9
-84 -13 -120 -7 -80 -14 -146 -20 -185 -2 -16 -7 -59 -10 -95 -3 -36 -8 -72
-10 -80 -2 -8 -7 -60 -11 -115 -3 -55 -8 -102 -10 -104 -9 -10 -13 8 -18 79
-6 81 -13 161 -21 225 -3 22 -8 69 -10 105 -3 36 -7 76 -10 90 -2 14 -7 66
-11 115 -6 77 -9 112 -13 135 -2 8 -312 6 -318 -2z m404 -773 c0 -8 -4 -15 -9
-15 -4 0 -8 7 -8 15 0 8 4 15 8 15 5 0 9 -7 9 -15z"/>
<path d="M5903 6596 c-5 -7 -7 -1240 -4 -1323 1 -9 43 -11 159 -10 l157 2 0
670 0 669 -153 1 c-85 0 -156 -4 -159 -9z"/>
<path d="M7217 6595 c-2 -5 -3 -307 -3 -670 l1 -660 160 0 160 0 0 668 c0 588
-2 667 -15 668 -93 6 -300 2 -303 -6z"/>
<path d="M3459 4834 c-3 -53 3 -409 7 -432 7 -35 10 -37 42 -26 25 9 27 14 32
84 7 105 25 106 84 3 58 -101 64 -107 83 -92 8 7 32 12 53 11 l39 -3 41 133
c23 73 43 138 44 143 2 6 15 -28 29 -75 27 -89 25 -100 -19 -100 -22 0 -64
-38 -64 -58 0 -17 61 -14 84 3 29 22 43 18 55 -15 10 -31 40 -40 71 -20 16 10
20 -7 -70 260 -23 69 -46 132 -51 140 -5 8 -13 25 -19 38 -21 48 -44 22 -65
-73 -11 -52 -99 -325 -105 -325 -4 0 -72 118 -88 151 -2 4 13 17 32 29 30 18
35 26 33 54 -3 31 -10 39 -126 143 -13 12 -39 24 -58 28 -19 3 -41 9 -49 12
-9 3 -14 -2 -15 -13z m124 -126 c39 -36 39 -42 -10 -77 -23 -16 -33 -18 -34
-9 -5 53 -4 118 1 118 4 0 23 -15 43 -32z"/>
<path d="M4282 4823 c-18 -46 -62 -183 -62 -193 0 -5 -5 -21 -11 -37 -10 -26
-14 -19 -48 102 l-36 130 -38 3 c-43 4 -45 -3 -22 -69 9 -24 24 -75 35 -114
53 -197 71 -259 75 -263 2 -2 13 -1 24 3 27 8 40 39 96 220 25 83 50 160 56
173 13 34 11 49 -8 55 -10 2 -25 8 -34 11 -12 5 -19 -1 -27 -21z"/>
<path d="M4501 4829 c-22 -21 -96 -131 -129 -193 l-21 -39 30 -36 c16 -20 56
-71 89 -114 57 -73 62 -77 92 -72 18 4 34 8 36 10 7 7 -19 46 -82 123 -34 42
-66 83 -70 90 -6 11 37 83 121 200 10 15 8 20 -17 34 -27 15 -29 15 -49 -3z"/>
<path d="M6094 4839 c-3 -5 -5 -37 -4 -72 1 -34 1 -108 1 -165 l-1 -103 -36
-15 c-20 -8 -39 -12 -42 -9 -4 3 -7 83 -7 176 0 193 0 192 -75 180 -9 -2 -5
-434 4 -453 11 -23 14 -23 88 11 35 16 84 38 109 49 l46 21 -3 181 c-1 100 -4
183 -7 186 -11 12 -67 22 -73 13z"/>
<path d="M6259 4818 c0 -18 0 -64 1 -103 1 -38 3 -128 5 -198 1 -71 7 -133 12
-138 6 -6 22 -7 37 -3 24 6 26 10 28 68 0 33 1 68 2 76 1 16 46 28 46 12 0
-10 57 -110 85 -150 16 -21 17 -22 40 -5 30 22 27 34 -31 132 l-43 74 38 28
c57 42 48 69 -50 154 -44 38 -90 69 -104 71 -14 1 -34 5 -45 9 -17 5 -20 2
-21 -27z m154 -160 c-6 -7 -25 -21 -42 -31 l-31 -18 0 71 0 72 42 -40 c32 -31
39 -43 31 -54z"/>
<path d="M3138 4828 c-12 -10 -14 -19 -7 -36 7 -18 16 -22 41 -21 18 1 38 1
43 0 6 0 10 -69 9 -183 0 -101 2 -190 5 -198 8 -21 71 -21 72 0 0 8 1 96 2
195 l2 180 35 1 c19 1 43 2 52 3 19 1 34 39 21 52 -5 5 -65 12 -134 15 -94 4
-128 2 -141 -8z"/>
<path d="M4639 4813 c0 -16 0 -50 2 -78 1 -27 2 -117 2 -198 1 -148 1 -148 25
-154 13 -3 27 -2 31 3 3 5 16 10 29 12 34 5 143 47 143 55 -1 4 -1 15 -1 25
-1 42 -15 47 -75 24 -31 -12 -60 -22 -64 -22 -4 0 -8 39 -8 88 -1 131 -5 245
-11 260 -2 6 -19 12 -38 12 -30 0 -34 -3 -35 -27z"/>
<path d="M5283 4833 c-25 -5 -26 -7 -17 -41 6 -20 12 -22 51 -20 l44 3 2 -200
2 -200 35 0 35 1 2 149 c1 83 2 171 2 196 l1 47 38 -2 c20 -2 44 1 53 5 19 10
31 46 18 54 -11 8 -237 14 -266 8z"/>
<path d="M5642 4768 c-51 -75 -92 -150 -92 -166 0 -6 32 -58 71 -116 96 -143
102 -143 189 -3 35 56 65 111 67 122 3 17 -40 86 -135 213 -28 37 -48 27 -100
-50z m108 -95 c24 -31 43 -61 43 -67 0 -6 -17 -37 -37 -69 l-38 -58 -44 66
-45 66 36 60 c20 32 38 59 40 59 1 0 22 -26 45 -57z"/>
<path d="M7157 4833 c-14 -3 -17 -11 -13 -26 3 -12 6 -26 6 -30 0 -4 20 -6 45
-3 25 3 45 2 46 -2 0 -4 0 -88 0 -187 1 -99 3 -188 5 -197 4 -12 14 -16 37
-15 l32 2 5 195 5 195 35 1 c64 2 68 4 72 29 3 14 1 28 -3 31 -12 7 -250 13
-272 7z"/>
<path d="M7474 4805 c-29 -28 -34 -38 -25 -49 21 -25 48 -24 80 3 36 31 37 34
14 61 -23 26 -25 26 -69 -15z"/>
<path d="M6601 4761 c-39 -37 -71 -76 -71 -84 0 -9 17 -31 37 -49 20 -18 52
-46 71 -63 l33 -30 -60 -59 c-34 -32 -61 -62 -61 -67 0 -5 11 -16 25 -25 25
-16 26 -16 83 36 99 93 103 97 96 125 -3 14 -34 47 -70 77 l-65 52 57 57 57
58 -24 20 c-13 11 -27 20 -31 21 -4 0 -39 -31 -77 -69z"/>
<path d="M7628 4658 c-2 -95 -2 -197 0 -225 3 -52 3 -52 33 -49 39 5 43 10 44
54 0 43 10 57 112 155 59 58 72 66 84 55 8 -7 41 -35 73 -62 l59 -50 -62 -57
c-33 -31 -61 -62 -61 -68 0 -6 12 -18 26 -27 25 -17 26 -17 81 37 30 30 66 65
80 77 37 37 22 65 -84 150 l-37 29 57 53 c56 51 56 52 39 76 -9 13 -22 24 -29
24 -6 0 -42 -29 -79 -64 l-69 -64 -35 29 c-19 16 -38 29 -42 29 -4 0 -34 16
-67 35 -32 19 -73 35 -90 35 l-30 0 -3 -172z m134 50 c15 -7 29 -17 32 -23 2
-5 -16 -30 -40 -55 l-44 -45 0 74 c0 55 3 72 13 68 6 -3 24 -11 39 -19z"/>
<path d="M7465 4625 c3 -30 7 -98 7 -151 l0 -95 36 3 c42 3 40 -1 42 134 2
104 -6 131 -41 149 -47 25 -52 21 -44 -40z"/>
<path d="M4488 4644 c-34 -18 -34 -25 -5 -69 26 -42 47 -44 68 -8 15 24 15 28
-3 60 -23 37 -23 38 -60 17z"/>
<path d="M4931 4415 c-23 -44 -23 -46 -6 -65 22 -24 35 -16 60 41 19 40 19 42
0 55 -26 20 -27 19 -54 -31z"/>
<path d="M6811 4413 c-22 -46 -22 -46 -3 -66 20 -19 20 -19 46 22 31 49 33 67
7 81 -27 14 -24 16 -50 -37z"/>
<path d="M8495 3310 c3 -5 8 -10 11 -10 2 0 4 5 4 10 0 6 -5 10 -11 10 -5 0
-7 -4 -4 -10z"/>
<path d="M8418 3262 c-16 -16 -19 -25 -11 -33 13 -13 38 -1 71 34 l23 24 -31
-1 c-18 -1 -40 -10 -52 -24z"/>
</g>
</svg>
