<svg xmlns="http://www.w3.org/2000/svg" version="1.1" xmlns:xlink="http://www.w3.org/1999/xlink" xmlns:svgjs="http://svgjs.dev/svgjs" width="1500" height="401" viewBox="0 0 1500 401"><g transform="matrix(1,0,0,1,-0.9090909090909918,-0.5722984337602952)"><svg viewBox="0 0 396 106" data-background-color="#ffffff" preserveAspectRatio="xMidYMid meet" height="401" width="1500" xmlns="http://www.w3.org/2000/svg" xmlns:xlink="http://www.w3.org/1999/xlink"><g id="tight-bounds" transform="matrix(1,0,0,1,0.2400000000000091,0.15128088273962703)"><svg viewBox="0 0 395.52 105.69743823452076" height="105.69743823452076" width="395.52"><g><svg viewBox="0 0 395.52 105.69743823452076" height="105.69743823452076" width="395.52"><g><svg viewBox="0 0 555.873595190853 148.54979519085302" height="105.69743823452076" width="395.52"><g transform="matrix(1,0,0,1,160.35359519085304,20.530398611760447)"><svg viewBox="0 0 395.52 107.48899796733212" height="107.48899796733212" width="395.52"><g id="textblocktransform"><svg viewBox="0 0 395.52 107.48899796733212" height="107.48899796733212" width="395.52" id="textblock"><g><svg viewBox="0 0 395.52 107.48899796733212" height="107.48899796733212" width="395.52"><rect width="395.52" height="107.48899796733212" x="0" y="0" opacity="1" fill="#7a26c1" data-fill-palette-color="tertiary"></rect><g transform="matrix(1,0,0,1,23.607599999999998,23.607599999999998)"><svg width="348.3048" viewBox="3.25 -36.55 269.02 46.559999999999995" height="60.27379796733212" data-palette-color="#ffffff"><path d="M10.25-13.99L10.25 0 3.25 0 3.25-35.01 27.76-35.01 27.76-28 10.25-28 10.25-21 20.75-21 20.75-13.99 10.25-13.99ZM37.35-36.55L37.35 0 30.64 0 30.64-36.55 37.35-36.55ZM52.14 10.01L48.73 9.96 48.73 3.25 52.44 3.3Q53.41 3.3 54.32 2.98 55.22 2.66 55.99 2.1 56.76 1.54 57.34 0.77 57.93 0 58.3-0.9L58.3-0.9Q57.2-0.44 56.06 0.02 54.93 0.49 53.78 0.49L53.78 0.49Q51.36 0.49 49.24-0.37 47.11-1.22 45.52-2.8 43.92-4.37 43-6.63 42.08-8.89 42.08-11.69L42.08-11.69 42.08-26.15 48.73-26.15 48.73-11.69Q48.73-10.3 49.13-9.27 49.53-8.23 50.21-7.53 50.9-6.84 51.81-6.49 52.73-6.15 53.78-6.15L53.78-6.15Q54.8-6.15 55.72-6.63 56.64-7.1 57.32-7.89 58-8.67 58.39-9.66 58.78-10.64 58.78-11.69L58.78-11.69 58.78-26.15 65.5-26.15 65.5-3.3Q65.47-0.54 64.42 1.88 63.37 4.3 61.56 6.1 59.74 7.91 57.32 8.96 54.9 10.01 52.14 10.01L52.14 10.01ZM106.02-25L106.02 0 99.04 0 99.04-25Q99.04-25.73 98.76-26.37 98.48-27 98-27.48 97.53-27.95 96.89-28.22 96.26-28.49 95.52-28.49L95.52-28.49Q94.79-28.49 94.16-28.22 93.52-27.95 93.05-27.48 92.57-27 92.3-26.37 92.03-25.73 92.03-25L92.03-25 92.03 0 85.03 0 85.03-25Q85.03-25.73 84.76-26.37 84.49-27 84.01-27.48 83.54-27.95 82.9-28.22 82.27-28.49 81.54-28.49L81.54-28.49Q80.8-28.49 80.17-28.22 79.53-27.95 79.06-27.48 78.58-27 78.31-26.37 78.04-25.73 78.04-25L78.04-25 78.04 0 71.04 0 71.04-25Q71.04-27.17 71.86-29.09 72.67-31.01 74.1-32.43 75.53-33.86 77.45-34.68 79.36-35.5 81.54-35.5L81.54-35.5Q83.49-35.5 85.3-34.8 87.1-34.11 88.54-32.79L88.54-32.79Q89.98-34.11 91.78-34.8 93.57-35.5 95.52-35.5L95.52-35.5Q97.7-35.5 99.61-34.68 101.53-33.86 102.96-32.43 104.39-31.01 105.2-29.09 106.02-27.17 106.02-25L106.02-25ZM120.99 10.01L117.57 9.96 117.57 3.25 121.28 3.3Q122.26 3.3 123.16 2.98 124.06 2.66 124.83 2.1 125.6 1.54 126.19 0.77 126.77 0 127.14-0.9L127.14-0.9Q126.04-0.44 124.9 0.02 123.77 0.49 122.62 0.49L122.62 0.49Q120.2 0.49 118.08-0.37 115.96-1.22 114.36-2.8 112.76-4.37 111.84-6.63 110.93-8.89 110.93-11.69L110.93-11.69 110.93-26.15 117.57-26.15 117.57-11.69Q117.57-10.3 117.97-9.27 118.37-8.23 119.06-7.53 119.74-6.84 120.66-6.49 121.57-6.15 122.62-6.15L122.62-6.15Q123.65-6.15 124.56-6.63 125.48-7.1 126.16-7.89 126.85-8.67 127.24-9.66 127.63-10.64 127.63-11.69L127.63-11.69 127.63-26.15 134.34-26.15 134.34-3.3Q134.32-0.54 133.27 1.88 132.22 4.3 130.4 6.1 128.58 7.91 126.16 8.96 123.74 10.01 120.99 10.01L120.99 10.01ZM168.18-17.5L168.18-17.5Q168.18-15.09 167.55-12.85 166.93-10.62 165.78-8.68 164.64-6.74 163.05-5.14 161.46-3.54 159.51-2.39 157.56-1.25 155.32-0.62 153.09 0 150.67 0L150.67 0 140.12 0 140.12-35.01 150.67-35.01Q153.09-35.01 155.32-34.39 157.56-33.76 159.51-32.62 161.46-31.47 163.05-29.87 164.64-28.27 165.78-26.33 166.93-24.39 167.55-22.16 168.18-19.92 168.18-17.5ZM161.17-17.5L161.17-17.5Q161.17-19.68 160.35-21.58 159.53-23.49 158.11-24.91 156.68-26.34 154.76-27.17 152.84-28 150.67-28L150.67-28 147.18-28 147.18-7.01 150.67-7.01Q152.84-7.01 154.76-7.82 156.68-8.64 158.11-10.07 159.53-11.5 160.35-13.42 161.17-15.33 161.17-17.5ZM178.77-14.4L178.77 0 172.1 0 172.1-26.15 173.72-26.15 175.91-23.05Q177.52-24.51 179.57-25.31 181.63-26.1 183.82-26.1L183.82-26.1 189.71-26.1 189.71-19.46 183.82-19.46Q182.77-19.46 181.85-19.07 180.92-18.68 180.23-17.99 179.55-17.31 179.16-16.38 178.77-15.45 178.77-14.4L178.77-14.4ZM217.59-13.31L217.59-13.31Q217.59-10.38 216.54-7.85 215.49-5.32 213.68-3.48 211.87-1.64 209.44-0.57 207.01 0.49 204.23 0.49L204.23 0.49Q201.47 0.49 199.04-0.57 196.61-1.64 194.79-3.48 192.98-5.32 191.93-7.85 190.88-10.38 190.88-13.31L190.88-13.31Q190.88-16.28 191.93-18.82 192.98-21.36 194.79-23.21 196.61-25.05 199.04-26.1 201.47-27.15 204.23-27.15L204.23-27.15Q207.01-27.15 209.44-26.16 211.87-25.17 213.68-23.35 215.49-21.53 216.54-18.98 217.59-16.43 217.59-13.31ZM210.87-13.31L210.87-13.31Q210.87-14.92 210.35-16.22 209.82-17.53 208.92-18.47 208.01-19.41 206.81-19.91 205.6-20.41 204.23-20.41L204.23-20.41Q202.86-20.41 201.65-19.91 200.45-19.41 199.56-18.47 198.66-17.53 198.15-16.22 197.64-14.92 197.64-13.31L197.64-13.31Q197.64-11.79 198.15-10.5 198.66-9.2 199.56-8.25 200.45-7.3 201.65-6.75 202.86-6.2 204.23-6.2L204.23-6.2Q205.6-6.2 206.81-6.71 208.01-7.23 208.92-8.15 209.82-9.08 210.35-10.4 210.87-11.72 210.87-13.31ZM227.93-14.94L227.93 0 221.27 0 221.27-26.15 222.88-26.15 225.08-23.61Q226.69-25.07 228.73-25.87 230.77-26.66 232.99-26.66L232.99-26.66Q235.38-26.66 237.5-25.74 239.63-24.83 241.22-23.23 242.8-21.63 243.72-19.49 244.63-17.36 244.63-14.94L244.63-14.94 244.63 0 237.97 0 237.97-14.94Q237.97-15.97 237.58-16.88 237.19-17.8 236.5-18.48 235.82-19.17 234.92-19.56 234.01-19.95 232.99-19.95L232.99-19.95Q231.94-19.95 231.01-19.56 230.08-19.17 229.4-18.48 228.72-17.8 228.32-16.88 227.93-15.97 227.93-14.94L227.93-14.94ZM272.27-21.46L259.77-6.4Q260.16-6.27 260.55-6.24 260.94-6.2 261.33-6.2L261.33-6.2Q262.31-6.2 263.21-6.47 264.11-6.74 264.91-7.24 265.7-7.74 266.32-8.46 266.95-9.18 267.34-10.06L267.34-10.06 272.22-5.15Q271.29-3.83 270.08-2.78 268.87-1.73 267.47-1 266.07-0.27 264.52 0.11 262.97 0.49 261.33 0.49L261.33 0.49Q258.57 0.49 256.14-0.54 253.71-1.56 251.89-3.39 250.08-5.22 249.03-7.75 247.98-10.28 247.98-13.31L247.98-13.31Q247.98-16.41 249.03-18.97 250.08-21.53 251.89-23.34 253.71-25.15 256.14-26.15 258.57-27.15 261.33-27.15L261.33-27.15Q262.97-27.15 264.53-26.76 266.09-26.37 267.49-25.63 268.9-24.9 270.12-23.84 271.34-22.78 272.27-21.46L272.27-21.46ZM255.42-9.84L263.19-20.14Q262.72-20.31 262.27-20.36 261.82-20.41 261.33-20.41L261.33-20.41Q259.96-20.41 258.75-19.91 257.55-19.41 256.65-18.48 255.76-17.55 255.25-16.25 254.74-14.94 254.74-13.31L254.74-13.31Q254.74-12.94 254.77-12.48 254.81-12.01 254.9-11.54 254.98-11.06 255.1-10.62 255.23-10.18 255.42-9.84L255.42-9.84Z" opacity="1" transform="matrix(1,0,0,1,0,0)" fill="#ffffff" class="wordmark-text-0" data-fill-palette-color="quaternary" id="text-0"></path></svg></g></svg></g></svg></g></svg></g><g><svg viewBox="0 0 148.54979519085305 148.54979519085302" height="148.54979519085302" width="148.54979519085305"><g><svg xmlns="http://www.w3.org/2000/svg" xmlns:xlink="http://www.w3.org/1999/xlink" version="1.1" x="0" y="0" viewBox="5.24 5.24 89.52000000000001 89.52" enable-background="new 0 0 100 100" xml:space="preserve" height="148.54979519085302" width="148.54979519085305" class="icon-icon-0" data-fill-palette-color="accent" id="icon-0"><g fill="#7a26c1" data-fill-palette-color="accent"><path d="M81.382 50c7.906-3.798 13.378-11.885 13.378-21.226 0-12.976-10.557-23.534-23.534-23.534-9.341 0-17.428 5.472-21.226 13.378C46.202 10.712 38.115 5.24 28.774 5.24 15.797 5.24 5.24 15.797 5.24 28.774c0 9.341 5.472 17.428 13.378 21.226C10.712 53.798 5.24 61.885 5.24 71.226c0 12.976 10.557 23.534 23.534 23.534 9.341 0 17.428-5.472 21.226-13.378 3.798 7.906 11.885 13.378 21.226 13.378 12.976 0 23.534-10.557 23.534-23.534C94.76 61.885 89.288 53.798 81.382 50zM71.226 9.855c10.432 0 18.919 8.487 18.919 18.919s-8.487 18.919-18.919 18.919-18.919-8.487-18.919-18.919S60.794 9.855 71.226 9.855zM9.855 28.774c0-10.432 8.487-18.919 18.919-18.919s18.919 8.487 18.919 18.919-8.487 18.919-18.919 18.919S9.855 39.206 9.855 28.774zM28.774 90.145c-10.432 0-18.919-8.487-18.919-18.919s8.487-18.919 18.919-18.919 18.919 8.487 18.919 18.919S39.206 90.145 28.774 90.145zM71.226 90.145c-10.432 0-18.919-8.487-18.919-18.919s8.487-18.919 18.919-18.919 18.919 8.487 18.919 18.919S81.658 90.145 71.226 90.145z" fill="#7a26c1" data-fill-palette-color="accent"></path><path d="M43.034 35.602c0.551-1.15 0.065-2.527-1.084-3.078l-8.407-4.025c-0.146-2.515-2.218-4.523-4.77-4.523-1.04 0-1.998 0.341-2.784 0.906l-8.398-4.021c-1.149-0.551-2.527-0.065-3.078 1.084-0.551 1.15-0.065 2.527 1.084 3.078l8.406 4.025c0.145 2.517 2.218 4.524 4.771 4.524 1.04 0 1.998-0.342 2.785-0.907l8.398 4.021c0.322 0.154 0.661 0.227 0.995 0.227C41.812 36.914 42.638 36.43 43.034 35.602z" fill="#7a26c1" data-fill-palette-color="accent"></path><path d="M64.851 43.242c0.303 0.133 0.618 0.196 0.929 0.196 0.886 0 1.731-0.515 2.113-1.378l3.76-8.532c2.443-0.22 4.371-2.255 4.371-4.755 0-1.093-0.382-2.089-0.999-2.897l3.759-8.53c0.514-1.165-0.015-2.527-1.182-3.042-1.166-0.515-2.527 0.014-3.042 1.182l-3.76 8.533c-2.444 0.22-4.372 2.255-4.372 4.754 0 1.093 0.382 2.09 1 2.898l-3.758 8.529C63.156 41.366 63.685 42.728 64.851 43.242z" fill="#7a26c1" data-fill-palette-color="accent"></path><path d="M32.681 73.992c0.556-0.783 0.89-1.734 0.89-2.765 0-2.56-2.022-4.64-4.55-4.772l-4.07-8.383c-0.556-1.145-1.936-1.624-3.083-1.068-1.146 0.557-1.624 1.937-1.068 3.083l4.066 8.375c-0.556 0.783-0.891 1.734-0.891 2.765 0 2.561 2.022 4.641 4.551 4.773l4.07 8.382c0.399 0.822 1.221 1.301 2.077 1.301 0.338 0 0.681-0.075 1.006-0.233 1.146-0.557 1.624-1.937 1.068-3.083L32.681 73.992z" fill="#7a26c1" data-fill-palette-color="accent"></path><path d="M82.343 63.221l-8.363 4.09c-0.781-0.551-1.728-0.882-2.754-0.882-2.566 0-4.65 2.029-4.775 4.564l-8.37 4.094c-1.145 0.56-1.619 1.942-1.059 3.087 0.4 0.818 1.221 1.294 2.075 1.294 0.34 0 0.686-0.076 1.012-0.235l8.362-4.089c0.781 0.551 1.728 0.882 2.755 0.882 2.565 0 4.649-2.029 4.774-4.564l8.371-4.094c1.145-0.56 1.619-1.942 1.059-3.087C84.87 63.135 83.489 62.66 82.343 63.221z" fill="#7a26c1" data-fill-palette-color="accent"></path></g></svg></g></svg></g></svg></g></svg></g><defs></defs></svg><rect width="395.52" height="105.69743823452076" fill="none" stroke="none" visibility="hidden"></rect></g></svg></g></svg>